<?xml version="1.0" encoding="UTF-8" standalone="no"?>
<!-- Created with Inkscape (http://www.inkscape.org/) -->
<svg
   xmlns:dc="http://purl.org/dc/elements/1.1/"
   xmlns:cc="http://web.resource.org/cc/"
   xmlns:rdf="http://www.w3.org/1999/02/22-rdf-syntax-ns#"
   xmlns:svg="http://www.w3.org/2000/svg"
   xmlns="http://www.w3.org/2000/svg"
   xmlns:xlink="http://www.w3.org/1999/xlink"
   xmlns:sodipodi="http://sodipodi.sourceforge.net/DTD/sodipodi-0.dtd"
   xmlns:inkscape="http://www.inkscape.org/namespaces/inkscape"
   width="744.09448819"
   height="1052.3622047"
   id="svg2"
   sodipodi:version="0.32"
   inkscape:version="0.44"
   sodipodi:docbase="/home/ak/my"
   sodipodi:docname="dvc2.svg"
   inkscape:export-filename="/home/ak/my/dvc3_64.png"
   inkscape:export-xdpi="76.438271"
   inkscape:export-ydpi="76.438271">
  <defs
     id="defs4">
    <linearGradient
       id="linearGradient6595">
      <stop
         style="stop-color:black;stop-opacity:0;"
         offset="0"
         id="stop6597" />
      <stop
         style="stop-color:#4a2000;stop-opacity:0.77254903;"
         offset="1"
         id="stop6599" />
    </linearGradient>
    <linearGradient
       id="linearGradient5545">
      <stop
         style="stop-color:white;stop-opacity:0;"
         offset="0"
         id="stop5547" />
      <stop
         style="stop-color:#c5c5c5;stop-opacity:1;"
         offset="1"
         id="stop5549" />
    </linearGradient>
    <linearGradient
       id="linearGradient5527">
      <stop
         id="stop5529"
         offset="0"
         style="stop-color:red;stop-opacity:1;" />
      <stop
         id="stop5531"
         offset="1"
         style="stop-color:white;stop-opacity:1;" />
    </linearGradient>
    <linearGradient
       id="linearGradient2836">
      <stop
         style="stop-color:white;stop-opacity:1;"
         offset="0"
         id="stop2838" />
      <stop
         style="stop-color:#f50000;stop-opacity:1;"
         offset="1"
         id="stop2840" />
    </linearGradient>
    <radialGradient
       inkscape:collect="always"
       xlink:href="#linearGradient6595"
       id="radialGradient6603"
       cx="301.96429"
       cy="424.50507"
       fx="301.96429"
       fy="424.50507"
       r="34.82143"
       gradientUnits="userSpaceOnUse"
       gradientTransform="matrix(-0.676869,-0.517955,1.90943,-2.495269,-304.2083,1640.163)" />
    <radialGradient
       inkscape:collect="always"
       xlink:href="#linearGradient6595"
       id="radialGradient8409"
       gradientUnits="userSpaceOnUse"
       gradientTransform="matrix(-0.676869,-0.517955,1.90943,-2.495269,-304.2083,1640.163)"
       cx="301.96429"
       cy="424.50507"
       fx="301.96429"
       fy="424.50507"
       r="34.82143" />
    <radialGradient
       inkscape:collect="always"
       xlink:href="#linearGradient6595"
       id="radialGradient8417"
       gradientUnits="userSpaceOnUse"
       gradientTransform="matrix(-0.676869,-0.517955,1.90943,-2.495269,-304.2083,1640.163)"
       cx="301.96429"
       cy="424.50507"
       fx="301.96429"
       fy="424.50507"
       r="34.82143" />
    <radialGradient
       inkscape:collect="always"
       xlink:href="#linearGradient6595"
       id="radialGradient8422"
       gradientUnits="userSpaceOnUse"
       gradientTransform="matrix(-0.676869,-0.517955,1.90943,-2.495269,-304.2083,1640.163)"
       cx="301.96429"
       cy="424.50507"
       fx="301.96429"
       fy="424.50507"
       r="34.82143" />
    <radialGradient
       inkscape:collect="always"
       xlink:href="#linearGradient6595"
       id="radialGradient9366"
       gradientUnits="userSpaceOnUse"
       gradientTransform="matrix(-0.676869,-0.517955,1.90943,-2.495269,-304.2083,1640.163)"
       cx="301.96429"
       cy="424.50507"
       fx="301.96429"
       fy="424.50507"
       r="34.82143" />
  </defs>
  <sodipodi:namedview
     id="base"
     pagecolor="#ffffff"
     bordercolor="#666666"
     borderopacity="1.0"
     gridtolerance="10000"
     guidetolerance="10"
     objecttolerance="10"
     inkscape:pageopacity="0.0"
     inkscape:pageshadow="2"
     inkscape:zoom="3.959798"
     inkscape:cx="323.26783"
     inkscape:cy="599.27786"
     inkscape:document-units="px"
     inkscape:current-layer="layer2"
     inkscape:window-width="907"
     inkscape:window-height="724"
     inkscape:window-x="64"
     inkscape:window-y="0" />
  <metadata
     id="metadata7">
    <rdf:RDF>
      <cc:Work
         rdf:about="">
        <dc:format>image/svg+xml</dc:format>
        <dc:type
           rdf:resource="http://purl.org/dc/dcmitype/StillImage" />
      </cc:Work>
    </rdf:RDF>
  </metadata>
  <g
     inkscape:label="lights"
     inkscape:groupmode="layer"
     id="layer1"
     style="opacity:1;display:inline">
    <path
       style="opacity:1;color:black;fill:white;fill-opacity:1;fill-rule:evenodd;stroke:none;stroke-width:0.5;stroke-linecap:round;stroke-linejoin:round;marker:none;marker-start:none;marker-mid:none;marker-end:none;stroke-miterlimit:4;stroke-dasharray:none;stroke-dashoffset:0;stroke-opacity:1;visibility:visible;display:inline;overflow:visible"
       d="M 277.03125,405.9375 C 258.61749,405.89047 243.17867,420.31191 242.1875,438.90625 C 242.02039,442.0413 242.28126,445.09975 242.90625,448.03125 C 243.34083,457.57846 247.67854,466.91924 255.65625,473.4375 C 270.541,485.59921 292.49455,483.38474 304.65625,468.5 C 305.88748,466.9931 306.93661,465.4155 307.875,463.78125 C 307.97269,463.66124 308.09111,463.55915 308.1875,463.4375 C 320.12506,448.37238 317.59638,426.46881 302.53125,414.53125 C 298.15209,411.06122 293.18596,408.8216 288.0625,407.75 C 285.13826,406.76647 282.04256,406.14093 278.8125,405.96875 C 278.21268,405.93678 277.62524,405.93902 277.03125,405.9375 z "
       id="path9389"
       inkscape:export-filename="/home/ak/my/dvc256.png"
       inkscape:export-xdpi="305.75308"
       inkscape:export-ydpi="305.75308" />
    <path
       sodipodi:type="arc"
       style="color:black;fill:url(#radialGradient9366);fill-opacity:1;fill-rule:evenodd;stroke:none;stroke-width:0.5;stroke-linecap:round;stroke-linejoin:round;marker:none;marker-start:none;marker-mid:none;marker-end:none;stroke-miterlimit:4;stroke-dasharray:none;stroke-dashoffset:0;stroke-opacity:1;visibility:visible;display:inline;overflow:visible"
       id="use6619"
       sodipodi:cx="279.46429"
       sodipodi:cy="450.93362"
       sodipodi:rx="34.82143"
       sodipodi:ry="34.82143"
       d="M 314.28572 450.93362 A 34.82143 34.82143 0 1 1  244.64286,450.93362 A 34.82143 34.82143 0 1 1  314.28572 450.93362 z"
       transform="matrix(5.322978e-2,-0.998582,0.998582,5.322978e-2,-188.2057,695.8202)"
       inkscape:export-filename="/home/ak/my/dvc.png"
       inkscape:export-xdpi="75.847542"
       inkscape:export-ydpi="75.847542" />
    <use
       x="0"
       y="0"
       xlink:href="#use6619"
       id="use8424"
       transform="matrix(-0.578455,0.815715,-0.815715,-0.578455,800.635,470.8593)"
       width="744.09448"
       height="1052.3622"
       inkscape:export-filename="/home/ak/my/dvc.png"
       inkscape:export-xdpi="75.847542"
       inkscape:export-ydpi="75.847542" />
    <use
       x="0"
       y="0"
       xlink:href="#use6619"
       id="use8426"
       transform="matrix(0.590599,-0.806965,0.806965,0.590599,-241.5703,409.6602)"
       width="744.09448"
       height="1052.3622"
       inkscape:export-filename="/home/ak/my/dvc.png"
       inkscape:export-xdpi="75.847542"
       inkscape:export-ydpi="75.847542" />
  </g>
  <g
     inkscape:groupmode="layer"
     id="layer3"
     inkscape:label="dvc"
     style="opacity:0.35135133;display:inline">
    <path
       style="opacity:1;fill:#ff7307;fill-opacity:0.76862745;fill-rule:evenodd;stroke:none;stroke-width:0.5;stroke-linecap:round;stroke-linejoin:round;stroke-miterlimit:4;stroke-dasharray:none;stroke-opacity:1;display:inline"
       d="M 291.55394,416.37912 C 286.79807,416.7591 275.88939,428.59074 276.21106,428.94883 C 276.57106,429.34957 287.20513,418.47565 289.80563,421.29246 C 292.49186,424.2021 282.29269,436.87768 282.6617,437.2382 C 283.0384,437.60624 296.32205,420.98313 293.18167,416.98198 C 292.8047,416.50169 292.23336,416.32483 291.55394,416.37912 z M 271.26757,438.1425 C 268.5854,438.55857 262.10649,447.97992 258.57729,447.30602 C 254.98112,446.61934 255.17111,443.99027 255.17111,443.99027 C 255.17111,443.99027 253.81093,446.01074 253.75438,447.81846 C 253.69781,449.62705 254.86158,451.72301 256.58785,451.76721 C 258.25322,451.81143 266.22989,443.61566 269.00684,443.11612 C 271.84279,442.60597 272.055,448.18078 274.76419,448.05961 C 277.53427,447.93843 275.72965,443.62107 280.25025,444.41228 C 284.82992,445.21382 290.18451,455.47543 294.56825,455.65569 C 298.89111,455.83596 302.67679,446.52229 302.67678,446.5223 C 302.67678,446.5223 300.34928,449.69416 297.28115,450.32034 C 294.22549,450.94398 287.93409,440.9185 283.62628,438.83579 C 279.34206,436.76448 279.08326,442.6123 276.39192,442.48311 C 273.70056,442.35393 274.07775,438.33744 271.50872,438.1425 C 271.43033,438.13654 271.3541,438.12908 271.26757,438.1425 z M 272.62403,449.02419 C 272.24732,448.65614 258.96367,465.24911 262.10405,469.25026 C 265.11979,473.09261 279.4423,457.69267 279.07466,457.28342 C 278.71466,456.88266 268.05044,467.7566 265.44994,464.93979 C 262.76373,462.03015 272.99303,449.38471 272.62403,449.02419 z "
       id="path1943"
       inkscape:export-filename="/home/ak/my/dvc256.png"
       inkscape:export-xdpi="305.75308"
       inkscape:export-ydpi="305.75308" />
  </g>
  <g
     inkscape:groupmode="layer"
     id="layer2"
     inkscape:label="letters"
     style="opacity:1;display:inline">
    <g
       id="g4576"
       style="opacity:1;color:black;fill:#ffaa2f;fill-opacity:0.76862746;fill-rule:evenodd;stroke:none;stroke-width:0.5;stroke-linecap:round;stroke-linejoin:round;marker:none;marker-start:none;marker-mid:none;marker-end:none;stroke-miterlimit:4;stroke-dasharray:none;stroke-dashoffset:0;stroke-opacity:1;visibility:visible;display:inline;overflow:visible">
      <path
         sodipodi:nodetypes="ccsccssc"
         style="opacity:1;color:black;fill:#ffaa2f;fill-opacity:0.76862746;fill-rule:evenodd;stroke:none;stroke-width:0.5;stroke-linecap:round;stroke-linejoin:round;marker:none;marker-start:none;marker-mid:none;marker-end:none;stroke-miterlimit:4;stroke-dasharray:none;stroke-dashoffset:0;stroke-opacity:1;visibility:visible;display:inline;overflow:visible"
         d="M 271.26757,438.1425 C 268.90361,438.23675 267.59308,441.16413 269.00684,443.11612 C 271.84279,442.60597 272.055,448.18078 274.76419,448.05961 C 277.53427,447.93843 275.72965,443.62107 280.25025,444.41228 C 282.37827,443.03041 283.18969,441.12022 283.62628,438.83579 C 279.34206,436.76448 279.08326,442.6123 276.39192,442.48311 C 273.70056,442.35393 274.07775,438.33744 271.50872,438.1425 C 271.43033,438.13654 271.3541,438.12908 271.26757,438.1425 z "
         id="use1901"
         inkscape:export-filename="/home/ak/my/dvc256.png"
         inkscape:export-xdpi="305.75308"
         inkscape:export-ydpi="305.75308" />
      <path
         inkscape:export-ydpi="305.75308"
         inkscape:export-xdpi="305.75308"
         inkscape:export-filename="/home/ak/my/dvc256.png"
         id="use1909"
         d="M 275.2473,427.40837 C 271.75063,424.16246 255.65759,424.13045 255.61141,424.60958 C 255.55974,425.14579 270.76164,425.62333 270.44586,429.44397 C 270.1197,433.39055 253.88496,434.45195 253.86901,434.96759 C 253.85273,435.49399 275.08131,434.0344 275.90424,429.01504 C 276.00302,428.41252 275.74684,427.87208 275.2473,427.40837 z "
         style="opacity:1;color:black;fill:#ffaa2f;fill-opacity:0.76862746;fill-rule:evenodd;stroke:none;stroke-width:0.5;stroke-linecap:round;stroke-linejoin:round;marker:none;marker-start:none;marker-mid:none;marker-end:none;stroke-miterlimit:4;stroke-dasharray:none;stroke-dashoffset:0;stroke-opacity:1;visibility:visible;display:inline;overflow:visible"
         sodipodi:nodetypes="cssssc" />
      <path
         inkscape:export-ydpi="305.75308"
         inkscape:export-xdpi="305.75308"
         inkscape:export-filename="/home/ak/my/dvc256.png"
         id="path2802"
         d="M 280.06864,455.69442 C 283.56531,452.44851 299.65835,452.4165 299.70453,452.89563 C 299.7562,453.43184 284.5543,453.90938 284.87008,457.73002 C 285.19624,461.6766 301.43098,462.738 301.44693,463.25364 C 301.46321,463.78004 280.23463,462.32045 279.4117,457.30109 C 279.31292,456.69857 279.5691,456.15813 280.06864,455.69442 z "
         style="opacity:1;color:black;fill:#ffaa2f;fill-opacity:0.76862746;fill-rule:evenodd;stroke:none;stroke-width:0.5;stroke-linecap:round;stroke-linejoin:round;marker:none;marker-start:none;marker-mid:none;marker-end:none;stroke-miterlimit:4;stroke-dasharray:none;stroke-dashoffset:0;stroke-opacity:1;visibility:visible;display:inline;overflow:visible"
         sodipodi:nodetypes="cssssc" />
    </g>
  </g>
</svg>
