/* XPM */
static char * autofile_xpm[] = {
"64 42 6 1",
"X	c Gray75 s backgroundToolBarColor",
",	c black s foregroundToolBarColor",
"o	c black",
"O	c Gray60",
"+	c Gray90",
"@	c Gray40",
"XXXXXXXXXXXXXXXXXXXXXXXXXXXXXXXXXXXXXXXXXXXXXXXXXXXXXXXXXXXXXXXX",
"XXXXXXXXXXXXXXXXXXXXXXXXXXXXXXXXXXXXXXXXXXXXXXXXXXXXXXXXXXXXXXXX",
"XXXXXXXXXXXXXXXXXXXXXXXXXXXXXXXXXXXXXXXXXXXXXXXXXXXXXXXXXXXXXXXX",
"XXXXXXXXXXXXXXXXXXXXXXXXXXXXXXXXXXXXXXXXXXXXXXXXXXXXXXXXXXXXXXXX",
"XXXXXXXXXXXXXXXXXXXXXXXXXXXXXXXXXXXXXXXXXXXXXXXXXXXXXXXXXXXXXXXX",
"XXXXXXXXXXXXXXXXXXXXXXXooooooooooooooooooXXXXXXXXXXXXXXXXXXXXXXX",
"XXXXXXXXXXXXXXXXXXXXXXXoOOo++++++++++oOOoXXXXXXXXXXXXXXXXXXXXXXX",
"XXXXXXXXXXXXXXXXXXXXXXXoOOo++++++++++oOOoXXXXXXXXXXXXXXXXXXXXXXX",
"XXXXXXXXXXXXXXXXXXXXXXXoOOo++++++++++oOooXXXXXXXXXXXXXXXXXXXXXXX",
"XXXXXXXXXXXXXXXXXXXXXXXoOOo++++++++++oOOoXXXXXXXXXXXXXXXXXXXXXXX",
"XXXXXXXXXXXXXXXXXXXXXXXoOOo++++++++++oOOoXXXXXXXXXXXXXXXXXXXXXXX",
"XXXXXXXXXXXXXXXXXXXXXXXoOOo++++++++++oOOoXXXXXXXXXXXXXXXXXXXXXXX",
"XXXXXXXXXXXXXXXXXXXXXXXoOOo++++++++++oOOoXXXXXXXXXXXXXXXXXXXXXXX",
"XXXXXXXXXXXXXXXXXXXXXXXoOOo++++++++++oOOoXXXXXXXXXXXXXXXXXXXXXXX",
"XXXXXXXXXXXXXXXXXXXXXXXoOOooooooooooooOOoXXXXXXXXXXXXXXXXXXXXXXX",
"XXXXXXXXXXXXXXXXXXXXXXXoOOOOOOOOOOOOOOOOoXXXXXXXXXXXXXXXXXXXXXXX",
"XXXXXXXXXXXXXXXXXXXXXXXoOOOOOOOOOOOOOOOOoXXXXXXXXXXXXXXXXXXXXXXX",
"XXXXXXXXXXXXXXXXXXXXXXXoOOooooooooooooOOoXXXXXXXXXXXXXXXXXXXXXXX",
"XXXXXXXXXXXXXXXXXXXXXXXoOOo@@@@@@@o++oOOoXXXXXXXXXXXXXXXXXXXXXXX",
"XXXXXXXXXXXXXXXXXXXXXXXoOOo@@@@@@@o++oOOoXXXXXXXXXXXXXXXXXXXXXXX",
"XXXXXXXXXXXXXXXXXXXXXXXoOOo@@@@@@@o++oOOoXXXXXXXXXXXXXXXXXXXXXXX",
"XXXXXXXXXXXXXXXXXXXXXXXXoOo@@@@@@@o++oOOoXXXXXXXXXXXXXXXXXXXXXXX",
"XXXXXXXXXXXXXXXXXXXXXXXXXooooooooooooooooXXXXXXXXXXXXXXXXXXXXXXX",
"XXXXXXXXXXXXXXXXXXXXXXXXXXXXXXXXXXXXXXXXXXXXXXXXXXXXXXXXXXXXXXXX",
"XXXXXXXXXXXXXXXXXXXXXXXXXXXXXXXXXXXXXXXXXXXXXXXXXXXXXXXXXXXXXXXX",
"XXXXXXXXXXX,,XXXXXXXXXXX,,XXXXXXXXXX,,,,,,,,X,,XXXXXXXXXXXXXXXXX",
"XXXXXXXXXX,,,,XXXXXXXXXX,,XXXXXXXXXX,,XXXXXXX,,XXXXXXXXXXXXXXXXX",
"XXXXXXXXXX,XX,XX,,XX,,X,,,,XX,,,,XXX,,XXXX,,X,,XX,,,,XXXXXXXXXXX",
"XXXXXXXXX,,XX,,X,,XX,,XX,,XX,,XX,,XX,,XXXX,,X,,X,,XX,,XXXXXXXXXX",
"XXXXXXXXX,,XX,,X,,XX,,XX,,XX,,XX,,XX,,,,,X,,X,,X,,XX,,XXXXXXXXXX",
"XXXXXXXXX,,,,,,X,,XX,,XX,,XX,,XX,,XX,,XXXX,,X,,X,,,,,,XXXXXXXXXX",
"XXXXXXXX,,XXXX,,,,XX,,XX,,XX,,XX,,XX,,XXXX,,X,,X,,XXXXXXXXXXXXXX",
"XXXXXXXX,,XXXX,,,,X,,,XX,,X,,,XX,,XX,,XXXX,,X,,X,,XX,,XXXXXXXXXX",
"XXXXXXXX,,XXXX,,X,,X,,XXX,,XX,,,,XXX,,XXXX,,X,,XX,,,,XXXXXXXXXXX",
"XXXXXXXXXXXXXXXXXXXXXXXXXXXXXXXXXXXXXXXXXXXXXXXXXXXXXXXXXXXXXXXX",
"XXXXXXXXXXXXXXXXXXXXXXXXXXXXXXXXXXXXXXXXXXXXXXXXXXXXXXXXXXXXXXXX",
"XXXXXXXXXXXXXXXXXXXXXXXXXXXXXXXXXXXXXXXXXXXXXXXXXXXXXXXXXXXXXXXX",
"XXXXXXXXXXXXXXXXXXXXXXXXXXXXXXXXXXXXXXXXXXXXXXXXXXXXXXXXXXXXXXXX",
"XXXXXXXXXXXXXXXXXXXXXXXXXXXXXXXXXXXXXXXXXXXXXXXXXXXXXXXXXXXXXXXX",
"XXXXXXXXXXXXXXXXXXXXXXXXXXXXXXXXXXXXXXXXXXXXXXXXXXXXXXXXXXXXXXXX",
"XXXXXXXXXXXXXXXXXXXXXXXXXXXXXXXXXXXXXXXXXXXXXXXXXXXXXXXXXXXXXXXX",
"XXXXXXXXXXXXXXXXXXXXXXXXXXXXXXXXXXXXXXXXXXXXXXXXXXXXXXXXXXXXXXXX"};
