#define noname_width 64
#define noname_height 42
static char noname_bits[] = {
 0x00,0x00,0x00,0x00,0x00,0x00,0x00,0x00,0x00,0x00,0x00,0x00,0x00,0x00,0x00,
 0x00,0x00,0x00,0x00,0x00,0x00,0x00,0x00,0x00,0x00,0x00,0x00,0x00,0x00,0x00,
 0x00,0x00,0x00,0x00,0x00,0x00,0x00,0x00,0x00,0x00,0x00,0x00,0x80,0xff,0xff,
 0x01,0x00,0x00,0x00,0x00,0x80,0x04,0x20,0x01,0x00,0x00,0x00,0x00,0x80,0x04,
 0x20,0x01,0x00,0x00,0x00,0x00,0x80,0x04,0xa0,0x01,0x00,0x00,0x00,0x00,0x80,
 0x04,0x20,0x01,0x00,0x00,0x00,0x00,0x80,0x04,0x20,0x01,0x00,0x00,0x00,0x00,
 0x80,0x04,0x20,0x01,0x00,0x00,0x00,0x00,0x80,0x04,0x20,0x01,0x00,0x00,0x00,
 0x00,0x80,0x04,0x20,0x01,0x00,0x00,0x00,0x00,0x80,0xfc,0x3f,0x01,0x00,0x00,
 0x00,0x00,0x80,0x00,0x00,0x01,0x00,0x00,0x00,0x00,0x80,0x00,0x00,0x01,0x00,
 0x00,0x00,0x00,0x80,0xfc,0x3f,0x01,0x00,0x00,0x00,0x00,0x80,0x04,0x24,0x01,
 0x00,0x00,0x00,0x00,0x80,0x04,0x24,0x01,0x00,0x00,0x00,0x00,0x80,0x04,0x24,
 0x01,0x00,0x00,0x00,0x00,0x00,0x05,0x24,0x01,0x00,0x00,0x00,0x00,0x00,0xfe,
 0xff,0x01,0x00,0x00,0x00,0x00,0x00,0x00,0x00,0x00,0x00,0x00,0x00,0x00,0x00,
 0x00,0x00,0x00,0x00,0x00,0x00,0x18,0x00,0x03,0xf0,0x6f,0x00,0x00,0x00,0x3c,
 0x00,0x03,0x30,0x60,0x00,0x00,0x00,0x24,0xb3,0xe7,0x31,0x6c,0x1e,0x00,0x00,
 0x66,0x33,0x33,0x33,0x6c,0x33,0x00,0x00,0x66,0x33,0x33,0xf3,0x6d,0x33,0x00,
 0x00,0x7e,0x33,0x33,0x33,0x6c,0x3f,0x00,0x00,0xc3,0x33,0x33,0x33,0x6c,0x03,
 0x00,0x00,0xc3,0x3b,0x3b,0x33,0x6c,0x33,0x00,0x00,0xc3,0x36,0xe6,0x31,0x6c,
 0x1e,0x00,0x00,0x00,0x00,0x00,0x00,0x00,0x00,0x00,0x00,0x00,0x00,0x00,0x00,
 0x00,0x00,0x00,0x00,0x00,0x00,0x00,0x00,0x00,0x00,0x00,0x00,0x00,0x00,0x00,
 0x00,0x00,0x00,0x00,0x00,0x00,0x00,0x00,0x00,0x00,0x00,0x00,0x00,0x00,0x00,
 0x00,0x00,0x00,0x00,0x00,0x00,0x00,0x00,0x00,0x00,0x00,0x00,0x00,0x00,0x00,
 0x00,0x00,0x00,0x00,0x00,0x00};
