#define noname_width 64
#define noname_height 42
static char noname_bits[] = {
 0x00,0x00,0x00,0x00,0x00,0x00,0x00,0x00,0x00,0x00,0x00,0x00,0x00,0x00,0x00,
 0x00,0x00,0x00,0x00,0xfe,0x0f,0x00,0x00,0x00,0x00,0x00,0x00,0x02,0x18,0x00,
 0x00,0x00,0x00,0x00,0x00,0x02,0x28,0x00,0x00,0x00,0x00,0x00,0x00,0x02,0x78,
 0x00,0x00,0x00,0x00,0x00,0x00,0x02,0x40,0x00,0x00,0x00,0x00,0x00,0xf0,0xff,
 0xff,0x0f,0x00,0x00,0x00,0x00,0x10,0x00,0x00,0x08,0x00,0x00,0x00,0x00,0xd0,
 0x00,0x80,0x0b,0x00,0x00,0x00,0x00,0x10,0x00,0x80,0x0a,0x00,0x00,0x00,0x00,
 0x10,0x00,0x80,0x0a,0x00,0x00,0x00,0x00,0x10,0xfc,0x87,0x0b,0x00,0x00,0x00,
 0x00,0x10,0x00,0x00,0x08,0x00,0x00,0x00,0x00,0x10,0xfc,0x01,0x08,0x00,0x00,
 0x00,0x00,0x10,0x00,0x00,0x08,0x00,0x00,0x00,0x00,0x10,0x7c,0x00,0x08,0x00,
 0x00,0x00,0x00,0x10,0x00,0x00,0x08,0x00,0x00,0x00,0x00,0x10,0x00,0x00,0x08,
 0x00,0x00,0x00,0x00,0x10,0x00,0x00,0x08,0x00,0x00,0x00,0x00,0xf0,0xff,0xff,
 0x0f,0x00,0x00,0x00,0x00,0x00,0x02,0x40,0x00,0x00,0x00,0x00,0x00,0x00,0xfe,
 0x7f,0x00,0x00,0x00,0x00,0x00,0x00,0x00,0x00,0x00,0x00,0x00,0x00,0x00,0x00,
 0x00,0x00,0x00,0x00,0x00,0x00,0x0f,0x00,0x00,0x00,0x00,0x00,0x00,0x80,0x19,
 0x00,0x00,0x00,0x00,0x00,0x00,0xc0,0xc0,0xd3,0x9d,0x8d,0xc7,0xe3,0x01,0xc0,
 0x60,0x36,0xb3,0xdb,0x6c,0x36,0x03,0xc0,0x60,0x36,0xb3,0xd9,0xec,0x30,0x03,
 0xc0,0x60,0x36,0xb3,0xd9,0x8c,0xf3,0x03,0xc0,0x60,0x36,0xb3,0xd9,0x0c,0x37,
 0x00,0x80,0x79,0x36,0xb3,0xdb,0x6c,0x36,0x03,0x00,0xcf,0x33,0xb3,0x8d,0xc7,
 0xe3,0x01,0x00,0x00,0x00,0x80,0x01,0x00,0x00,0x00,0x00,0x00,0x00,0x80,0x01,
 0x00,0x00,0x00,0x00,0x00,0x00,0x80,0x01,0x00,0x00,0x00,0x00,0x00,0x00,0x00,
 0x00,0x00,0x00,0x00,0x00,0x00,0x00,0x00,0x00,0x00,0x00,0x00,0x00,0x00,0x00,
 0x00,0x00,0x00,0x00,0x00,0x00,0x00,0x00,0x00,0x00,0x00,0x00,0x00,0x00,0x00,
 0x00,0x00,0x00,0x00,0x00,0x00};
