/* XPM */
static char * delete_xpm[] = {
"64 42 5 1",
"X	c Gray75 s backgroundToolBarColor",
",	c black s foregroundToolBarColor",
"o	c black",
"O	c white",
"+	c Gray60",
"XXXXXXXXXXXXXXXXXXXXXXXXXXXXXXXXXXXXXXXXXXXXXXXXXXXXXXXXXXXXXXXX",
"XXXXXXXXXXXXXXXXXXXXXXXXXXXXXXXXXXXXXXXXXXXXXXXXXXXXXXXXXXXXXXXX",
"XXXXXXXXXXXXXXXXXXXXXXXXXXXXXXXXXXXXXXXXXXXXXXXXXXXXXXXXXXXXXXXX",
"XXXXXXXXXXXXXXXXXXXXXXXXXXXXXXXXXXXXXXXXXXXXXXXXXXXXXXXXXXXXXXXX",
"XXXXXXXXXXXXXXXXXXXXXXXXXXXXXXXXXXXXXXXXXXXXXXXXXXXXXXXXXXXXXXXX",
"XXXXXXXXXXXXXXXXXXXXXXXXXooooooooooXXXXXXoooXXXXXXXXXXXXXXXXXXXX",
"XXXXXXXXXXXXXXXXXXXXXXXXXoOOOOOOOOooXXooooooXXXXXXXXXXXXXXXXXXXX",
"XXXXXXXXXXXXXXXXXXXXXoooooooOOOOOOo+ooooooXXXXXXXXXXXXXXXXXXXXXX",
"XXXXXXXXXXXXXXXXXXXXoooooooooooOOOoooooXXXXXXXXXXXXXXXXXXXXXXXXX",
"XXXXXXXXXXXXXXXXXXXXXXXXXoOooooooOoooooXXXXXXXXXXXXXXXXXXXXXXXXX",
"XXXXXXXXXXXXXXXXXXXXXXXXXoOOOOooooooOOoXXXXXXXXXXXXXXXXXXXXXXXXX",
"XXXXXXXXXXXXXXXXXXXXXXXXXoOOOOOooooOOOoXXXXXXXXXXXXXXXXXXXXXXXXX",
"XXXXXXXXXXXXXXXXXXXXXXXXXoOOOOoooooooOoXXXXXXXXXXXXXXXXXXXXXXXXX",
"XXXXXXXXXXXXXXXXXXXXXXXXXoOOOoooOOoooooXXXXXXXXXXXXXXXXXXXXXXXXX",
"XXXXXXXXXXXXXXXXXXXXXXXXXoOOoooOOOOOoooooXXXXXXXXXXXXXXXXXXXXXXX",
"XXXXXXXXXXXXXXXXXXXXXXXXXoOoooOOOOOOOOooooXXXXXXXXXXXXXXXXXXXXXX",
"XXXXXXXXXXXXXXXXXXXXXXXXXooooOOOOOOOOOoXooooXXXXXXXXXXXXXXXXXXXX",
"XXXXXXXXXXXXXXXXXXXXXXXXooooOOOOOOOOOOoXXooooXXXXXXXXXXXXXXXXXXX",
"XXXXXXXXXXXXXXXXXXXXXXooooOOOOOOOOOOOOoXXXooooXXXXXXXXXXXXXXXXXX",
"XXXXXXXXXXXXXXXXXXXXXoooooOOOOOOOOOOOOoXXXXoooXXXXXXXXXXXXXXXXXX",
"XXXXXXXXXXXXXXXXXXXXXXXXXoOOOOOOOOOOOOoXXXXXXXXXXXXXXXXXXXXXXXXX",
"XXXXXXXXXXXXXXXXXXXXXXXXXoOOOOOOOOOOOOoXXXXXXXXXXXXXXXXXXXXXXXXX",
"XXXXXXXXXXXXXXXXXXXXXXXXXooooooooooooooXXXXXXXXXXXXXXXXXXXXXXXXX",
"XXXXXXXXXXXXXXXXXXXXXXXXXXXXXXXXXXXXXXXXXXXXXXXXXXXXXXXXXXXXXXXX",
"XXXXXXXXXXXXXXXXXXXXXXXXXXXXXXXXXXXXXXXXXXXXXXXXXXXXXXXXXXXXXXXX",
"XXXXXXXXXXXXXX,,,,,XXXXXXXXXX,,XXXXXXXXX,,XXXXXXXXXXXXXXXXXXXXXX",
"XXXXXXXXXXXXXX,,XX,,XXXXXXXXX,,XXXXXXXXX,,XXXXXXXXXXXXXXXXXXXXXX",
"XXXXXXXXXXXXXX,,XXX,,XX,,,,XX,,XX,,,,XX,,,,XX,,,,XXXXXXXXXXXXXXX",
"XXXXXXXXXXXXXX,,XXX,,X,,XX,,X,,X,,XX,,XX,,XX,,XX,,XXXXXXXXXXXXXX",
"XXXXXXXXXXXXXX,,XXX,,X,,XX,,X,,X,,XX,,XX,,XX,,XX,,XXXXXXXXXXXXXX",
"XXXXXXXXXXXXXX,,XXX,,X,,,,,,X,,X,,,,,,XX,,XX,,,,,,XXXXXXXXXXXXXX",
"XXXXXXXXXXXXXX,,XXX,,X,,XXXXX,,X,,XXXXXX,,XX,,XXXXXXXXXXXXXXXXXX",
"XXXXXXXXXXXXXX,,XX,,XX,,XX,,X,,X,,XX,,XX,,X,,,XX,,XXXXXXXXXXXXXX",
"XXXXXXXXXXXXXX,,,,,XXXX,,,,XX,,XX,,,,XXXX,,XX,,,,XXXXXXXXXXXXXXX",
"XXXXXXXXXXXXXXXXXXXXXXXXXXXXXXXXXXXXXXXXXXXXXXXXXXXXXXXXXXXXXXXX",
"XXXXXXXXXXXXXXXXXXXXXXXXXXXXXXXXXXXXXXXXXXXXXXXXXXXXXXXXXXXXXXXX",
"XXXXXXXXXXXXXXXXXXXXXXXXXXXXXXXXXXXXXXXXXXXXXXXXXXXXXXXXXXXXXXXX",
"XXXXXXXXXXXXXXXXXXXXXXXXXXXXXXXXXXXXXXXXXXXXXXXXXXXXXXXXXXXXXXXX",
"XXXXXXXXXXXXXXXXXXXXXXXXXXXXXXXXXXXXXXXXXXXXXXXXXXXXXXXXXXXXXXXX",
"XXXXXXXXXXXXXXXXXXXXXXXXXXXXXXXXXXXXXXXXXXXXXXXXXXXXXXXXXXXXXXXX",
"XXXXXXXXXXXXXXXXXXXXXXXXXXXXXXXXXXXXXXXXXXXXXXXXXXXXXXXXXXXXXXXX",
"XXXXXXXXXXXXXXXXXXXXXXXXXXXXXXXXXXXXXXXXXXXXXXXXXXXXXXXXXXXXXXXX"};
