#define noname_width 64
#define noname_height 42
static char noname_bits[] = {
 0x00,0x00,0x00,0x00,0x00,0x00,0x00,0x00,0x00,0x00,0x00,0x00,0x00,0x00,0x00,
 0x00,0x00,0x00,0x00,0x00,0x00,0x00,0x00,0x00,0x00,0x00,0x00,0x00,0x00,0x00,
 0x00,0x00,0x00,0x00,0x00,0x00,0x00,0x00,0x00,0x00,0x00,0x00,0x00,0xfe,0x07,
 0x0e,0x00,0x00,0x00,0x00,0x00,0x02,0xcc,0x0f,0x00,0x00,0x00,0x00,0xe0,0x0f,
 0xf4,0x03,0x00,0x00,0x00,0x00,0xf0,0x7f,0x7c,0x00,0x00,0x00,0x00,0x00,0x00,
 0xfa,0x7d,0x00,0x00,0x00,0x00,0x00,0x00,0xc2,0x4f,0x00,0x00,0x00,0x00,0x00,
 0x00,0x82,0x47,0x00,0x00,0x00,0x00,0x00,0x00,0xc2,0x5f,0x00,0x00,0x00,0x00,
 0x00,0x00,0xe2,0x7c,0x00,0x00,0x00,0x00,0x00,0x00,0x72,0xf0,0x01,0x00,0x00,
 0x00,0x00,0x00,0x3a,0xc0,0x03,0x00,0x00,0x00,0x00,0x00,0x1e,0x40,0x0f,0x00,
 0x00,0x00,0x00,0x00,0x0f,0x40,0x1e,0x00,0x00,0x00,0x00,0xc0,0x03,0x40,0x3c,
 0x00,0x00,0x00,0x00,0xe0,0x03,0x40,0x38,0x00,0x00,0x00,0x00,0x00,0x02,0x40,
 0x00,0x00,0x00,0x00,0x00,0x00,0x02,0x40,0x00,0x00,0x00,0x00,0x00,0x00,0xfe,
 0x7f,0x00,0x00,0x00,0x00,0x00,0x00,0x00,0x00,0x00,0x00,0x00,0x00,0x00,0x00,
 0x00,0x00,0x00,0x00,0x00,0x00,0xc0,0x07,0x60,0x00,0x03,0x00,0x00,0x00,0xc0,
 0x0c,0x60,0x00,0x03,0x00,0x00,0x00,0xc0,0x98,0x67,0x9e,0xe7,0x01,0x00,0x00,
 0xc0,0xd8,0x6c,0x33,0x33,0x03,0x00,0x00,0xc0,0xd8,0x6c,0x33,0x33,0x03,0x00,
 0x00,0xc0,0xd8,0x6f,0x3f,0xf3,0x03,0x00,0x00,0xc0,0xd8,0x60,0x03,0x33,0x00,
 0x00,0x00,0xc0,0xcc,0x6c,0x33,0x3b,0x03,0x00,0x00,0xc0,0x87,0x67,0x1e,0xe6,
 0x01,0x00,0x00,0x00,0x00,0x00,0x00,0x00,0x00,0x00,0x00,0x00,0x00,0x00,0x00,
 0x00,0x00,0x00,0x00,0x00,0x00,0x00,0x00,0x00,0x00,0x00,0x00,0x00,0x00,0x00,
 0x00,0x00,0x00,0x00,0x00,0x00,0x00,0x00,0x00,0x00,0x00,0x00,0x00,0x00,0x00,
 0x00,0x00,0x00,0x00,0x00,0x00,0x00,0x00,0x00,0x00,0x00,0x00,0x00,0x00,0x00,
 0x00,0x00,0x00,0x00,0x00,0x00};
