/* XPM */
static char *noname[] = {
/* width height ncolors chars_per_pixel */
"24 30 8 1",
/* colors */
"` c #000000",
"a c #818181",
"b c #EAEAEA",
"c c #D4D4D4",
"d c #AAAAAA s background",
"e c #545454",
"f c #FFFFFF",
"g c #242424",
/* pixels */
"ddddddaeaddddddddddddddd",
"dddddaaaaeaddddddddddddd",
"ddddacccddaaaaaddddddddd",
"dddacffbccccddaeeadddddd",
"dddaffffffbbcccddaaaaadd",
"dddaaaaadcbffffbbccdegad",
"dddddaaaeegadbffffbggggd",
"dddddadeeeeeeeaadcdeeggd",
"ddddddbfbbaaeaeaegeaaged",
"ddddacbcbbcccddaaeeaaged",
"ddddafccbbccddcbbcddd`ad",
"dddddffccdbcfffccdcfagdd",
"dddacbccccbcddcbbbffeedd",
"dddaffbfccdcbbbcddbf`add",
"dddafbcccfbfbcccbbfcgadd",
"ddddffffffffffffbbfeeddd",
"ddabbffffffffffffffgaddd",
"ddafccbcbbbfffffffc`addd",
"dddcbffcdadcbfffffagdddd",
"dacbbbbbbcccccccffeedddd",
"dafccccbbbbcdccbfb`adddd",
"ddbcffbdaddbfbcbfdgadddd",
"acbccdccbccccdcffeeddddd",
"ebffffbcacccffcffgaddddd",
"aedcffffffbcdcbfcgaddddd",
"aeg``eadbfffffffagdddddd",
"dddaegg``gdbffffgedddddd",
"ddddddaaeg``gadd`adddddd",
"ddddddddddaagg``gadddddd",
"dddddddddddddaaeaddddddd"
};
