/* XPM */
static char *document2[] = {
/* width height num_colors chars_per_pixel */
"    24    30       32            1",
/* colors */
". c #000000",
"# c #a4a5a4",
"a c #9f9f9f",
"b c #999999",
"c c #919191",
"d c #818181",
"e c #6d6d6d",
"f c #5d5d5d",
"g c #494949",
"h c #eaeaea",
"i c #373737",
"j c #e3e4e3",
"k c #d4d4d4",
"l c #c8c8c8",
"m c #0d0d0d",
"n c #b4b4b4",
"o c #b0aeb0",
"p c #aeaeae",
"q c #aaaaaa s background",
"r c #888888",
"s c #767676",
"t c #646464",
"u c #545454",
"v c #ffffff",
"w c #f6f7f6",
"x c #efefef",
"y c #dfdfdf",
"z c #dad9da",
"A c #242424",
"B c #cfcfcf",
"C c #bfbfbf",
"D c #b9b9b9",
/* pixels */
"qqqqqaetr#qqqqqqqqqqqqqq",
"qqqq#errefd#qqqqqqqqqqqq",
"qqq#rzklCqcdsdra#qqqqqqq",
"qqqrkvvxzkkln#rtfdaqqqqq",
"qq#dvvvvvvxxzklCqcrdsr#q",
"qq#rresr#lxvvvvxhzl#tisq",
"qqqqqdsefgieCxvvvvxiAiiq",
"qqqqqrCttffuuuernkagtiiq",
"qqqq#nxvxxcsuetsuigrsitq",
"qqqqczhzxhzzlC#seffscifq",
"qqqqrvlyxxzlCCzxxkCaCmrq",
"qqqq#vvlzqhzvvvklalvciaq",
"qqqckhlkzzhlCCkhhxvvguqq",
"qqqrvvxvklalxxxlq#xvmd#q",
"qqqcvxklkvxvxllkhxvlArqq",
"qq#Cvvvvvvvvvvvvhxvtgqqq",
"qqrxxvvvvvvvvvvvvvvAeqqq",
"qqrvkzhzhxxvvvvvvvkmrqqq",
"qqqlhvvlCrnkhvvvvvci#qqq",
"qckxxxhxxkzzllllvvguqqqq",
"qrvklklxxxhlnlzxvhmrqqqq",
"qahzvvhCcCnxvxlhvqicqqqq",
"clxkkqlzhkkklCzvvfg#qqqq",
"txvvvvxlrzlzvvkvvAeqqqqq",
"dtalvvvvvvxknzhvlArqqqqq",
"rgimmgdqhvvvvvvvei#qqqqq",
"qq#rtiA..i#xvvvvitqqqqqq",
"qqqqqarsgimmis#Cmrqqqqqq",
"qqqqqqqqq#ceiA..icqqqqqq",
"qqqqqqqqqqqq#rdfeqqqqqqq"
};
