#define noname_width 64
#define noname_height 42
static char noname_bits[] = {
 0x00,0x00,0x00,0x00,0x00,0x00,0x00,0x00,0x00,0x00,0x00,0x00,0x00,0x00,0x00,
 0x00,0x00,0x00,0x00,0x00,0x00,0x00,0x00,0x00,0x00,0x00,0x00,0x00,0x00,0x00,
 0x00,0x00,0x00,0x00,0x00,0x00,0x00,0x00,0x00,0x00,0x00,0x00,0x80,0xff,0xff,
 0x01,0x00,0x00,0x00,0x00,0x80,0x04,0x20,0x01,0x00,0x00,0x00,0x00,0x80,0x04,
 0x20,0x01,0x00,0x00,0x00,0x00,0x80,0x04,0xa0,0x01,0x00,0x00,0x00,0x00,0x80,
 0x04,0x20,0x01,0x00,0x00,0x00,0x00,0x80,0x04,0x20,0x01,0x00,0x00,0x00,0x00,
 0x80,0x04,0x20,0x01,0x00,0x00,0x00,0x00,0x80,0x04,0x20,0x01,0x00,0x00,0x00,
 0x00,0x80,0x04,0x20,0x01,0x00,0x00,0x00,0x00,0x80,0xfc,0x3f,0x01,0x00,0x00,
 0x00,0x00,0x80,0x00,0x00,0x01,0x00,0x00,0x00,0x00,0x80,0x00,0x00,0x01,0x00,
 0x00,0x00,0x00,0x80,0xfc,0x3f,0x01,0x00,0x00,0x00,0x00,0x80,0x04,0x24,0x01,
 0x00,0x00,0x00,0x00,0x80,0x04,0x24,0x01,0x00,0x00,0x00,0x00,0x80,0x04,0x24,
 0x01,0x00,0x00,0x00,0x00,0x00,0x05,0x24,0x01,0x00,0x00,0x00,0x00,0x00,0xfe,
 0xff,0x01,0x00,0x00,0x00,0x00,0x00,0x00,0x00,0x00,0x00,0x00,0x00,0x00,0x00,
 0x00,0x00,0x00,0x00,0x00,0x00,0x00,0x80,0x7f,0x03,0x00,0x00,0x00,0x00,0x00,
 0x80,0x01,0x03,0x00,0x00,0x00,0x00,0x00,0x80,0x61,0xf3,0x00,0x00,0x00,0x00,
 0x00,0x80,0x61,0x9b,0x01,0x00,0x00,0x00,0x00,0x80,0x6f,0x9b,0x01,0x00,0x00,
 0x00,0x00,0x80,0x61,0xfb,0x01,0x00,0x00,0x00,0x00,0x80,0x61,0x1b,0x00,0x00,
 0x00,0x00,0x00,0x80,0x61,0x9b,0x01,0x00,0x00,0x00,0x00,0x80,0x61,0xf3,0x00,
 0x00,0x00,0x00,0x00,0x00,0x00,0x00,0x00,0x00,0x00,0x00,0x00,0x00,0x00,0x00,
 0x00,0x00,0x00,0x00,0x00,0x00,0x00,0x00,0x00,0x00,0x00,0x00,0x00,0x00,0x00,
 0x00,0x00,0x00,0x00,0x00,0x00,0x00,0x00,0x00,0x00,0x00,0x00,0x00,0x00,0x00,
 0x00,0x00,0x00,0x00,0x00,0x00,0x00,0x00,0x00,0x00,0x00,0x00,0x00,0x00,0x00,
 0x00,0x00,0x00,0x00,0x00,0x00};
