/* XPM */
static char *film[] = {
/* width height num_colors chars_per_pixel */
"    24    30       32            1",
/* colors */
". c #000000",
"# c #799fa1",
"a c #060919",
"b c #411707",
"c c #8fc7ff",
"d c #3f4040",
"e c #873d06",
"f c #62b1e6",
"g c #392e26",
"h c #292a2a",
"i c #9a9e9f",
"j c #284367",
"k c #646666",
"l c #aacae6",
"m c #238fc1",
"n c #182a50",
"o c #93673e",
"p c #7f7f80",
"q c #131516",
"r c #aaaaaa s background",
"s c #ddf2fd",
"t c #6991ac",
"u c #1c0804",
"v c #494b4a",
"w c #948b79",
"x c #733006",
"y c #151c34",
"z c #592009",
"A c #9f4c05",
"B c #54585d",
"C c #376389",
"D c #231305",
/* pixels */
"rrrrrrrrwirrrrrrrrrrrrrr",
"rrrrpddv..prrrrrrrrrrrrr",
"rrrpjdkyajjprriiiwiiwirr",
"rrrnf.pfu.tgri.q....agir",
"rrktC.dlC.hCpiivqCCjjhBr",
"rrdcv..lca.tjrrddoBoogdr",
"rptcj.ulcj.djrrvdAAAAzBr",
"rBtcj..lcCuapprvgxxxxbdr",
"rvcfB.alkr..#BrBdDDDDuBr",
"rdjkt.kB.#..#vrBgnnnhadr",
"rjq.lCla.kq.BvrBgttmtjhr",
"rn..llc..Bh.BvrkvAAAAbBr",
"rh..rjl..Bh.kvrkgAAAAzdr",
"rn..#tla.pa.pdrBgxxxxbdr",
"rv..rccq.py.pBrvgzbzbqkr",
"rjhhlniC.ra.rdrvha.auhBr",
"rv#lt.Bctc..fBrdgCmCChkr",
"rvcct.qlc#.utkrhztCtpnBr",
"rBflC..lcC.nCiidxAAAxdkr",
"rptcB..lcj.Cvrphbeeezhpr",
"rrdcC.qlfuutkrkhDbzbqhrr",
"rrktt.Bcv.Cnrrkq....ddrr",
"rrihtnrtaaBkrrhnCCCnhBrr",
"rrrdq#t..avrrpBepppDqwrr",
"rrrp..BipwrrrvDeeexqdrrr",
"rrrrh.krrrrrkqDbDbDhkrrr",
"rrrrp.qrrrrphynnyaudrrrr",
"rrrrrd.hkpBqhoBkjqdprrrr",
"rrrrrrv......u.qhhprrrrr",
"rrrrrrrpvqu..uadpirrrrrr"
};
