/* XPM */
static char *noname[] = {
/* width height ncolors chars_per_pixel */
"24 30 8 1",
/* colors */
"` c #000000",
"a c #8FC7FF",
"b c #284367",
"c c #238FC1",
"d c #7F7F80",
"e c #AAAAAA s background",
"f c #592009",
"g c #9F4C05",
/* pixels */
"eeeeeeeedeeeeeeeeeeeeeee",
"eeeedbbb``deeeeeeeeeeeee",
"eeedbbd``bbdeeeeedeedeee",
"eeeba`da``dfee```````fee",
"eeddb`bab`fbdeeb`bbbbfbe",
"eebab``aa``dbeebbgbggfbe",
"eddab``aab`bbeebbggggfbe",
"ebdab``aab``ddebffffffbe",
"ebaab``ade``dbebb`````be",
"ebbdd`db`d``dbebfbbbf`be",
"eb``aba``d``bbebfddcdbfe",
"eb``aaa``bf`bbedbggggfbe",
"ef``eba``bf`dbedfggggfbe",
"eb``dda``d``dbebffffffbe",
"eb``eaa``d``dbebfffff`de",
"ebffabeb`e``ebebf````fbe",
"ebdad`bada``abebfbcbbfde",
"ebaad``aad``ddeffdbddbbe",
"ebaab``aab`bbeebfgggfbde",
"eddab``aab`bbedffgggffde",
"eebab``aa``ddedf`fff`fee",
"eeddd`bab`bbeed`````bbee",
"eeefdbed``bdeefbbbbbfbee",
"eeeb`dd```beedbgddd``dee",
"eeed``beddeeeb`gggf`beee",
"eeeef`deeeeed``f`f`fdeee",
"eeeed``eeeedf`bb```beeee",
"eeeeeb`fddb`fgbdb`bdeeee",
"eeeeeeb`````````ffdeeeee",
"eeeeeeedb``````bdeeeeeee"
};
