/* XPM */
static char *noname[] = {
/* width height ncolors chars_per_pixel */
"24 30 9 1",
/* colors */
"` c #7F7F7F",
"a c #393939",
"b c #111111",
"c c #AAAAAA s background",
"C c #AAAAAA",
"d c #969696",
"e c #5C5C5C",
"f c #F9F9F9",
"g c #D3D3D3",
/* pixels */
"cccccccccccccccccccccccc",
"cccccccccde`deeedccccccc",
"cccccccc`bbabbbbbecccccc",
"cccccccabbebbbbbbecccccc",
"cccccffbbafgabbbbecccccc",
"ccccfff`befgfebbbacccccc",
"ccccdfgCaCgggebbbbeabccc",
"ccceagggggggCbbbbbbbbecc",
"ccgeCgggggCCCdbeebbbbbdc",
"ccfffggggCCCCCdfdbbbbbec",
"cgfgggggCCCCCCCddebbbedc",
"cggggggCCCCCCCddd`bbb`cc",
"cdCgggCCCCdCCdddd`ebbecc",
"cdaCgCCCdaaedddd``bbbacc",
"ccddCCCCebbaddd``abbbbbe",
"ccCCCCCCebebd````ebbbbbe",
"ccfCCCCdeeab`d```ebbbbae",
"cggCCCddeaebec`eeeeabaee",
"ccgCCdddeaabac`eeeeeaea`",
"ccgddddd``bbeCeeeeeeaaac",
"ccgd`d```C`ag`eeeeeeaacc",
"ccdeae````Cg`eeeeeaabacc",
"ccccce```eeeeeeeeaabbbdc",
"cccccg`eeeeeeeeeeabbb`cc",
"cccccc`eeeeeeeeaaabbeccc",
"ccccceeeeeeeeeaaaabacccc",
"ccccccaeaaeeeaaaaaaccccc",
"ccccccce``aeaabbaadccccc",
"cccccccccdaaaabbbdcccccc",
"ccccccccccbaaaaecccccccc"
};
