/* XPM */
static char *gear[] = {
/* width height num_colors chars_per_pixel */
"    24    30      242            2",
/* colors */
".. c #aaaaaa s background",
"zz c #aaaaaa",
".# c #8e8e8e",
".a c #4d4d4d",
".b c #9f9f9f",
".c c #888888",
".d c #848484",
".e c #838383",
".f c #828282",
".g c #484848",
".h c #303030",
".i c #131313",
".j c #141414",
".k c #707070",
".l c #777777",
".m c #2b2b2b",
".n c #1d1d1d",
".o c #121212",
".p c #393939",
".q c #727272",
".r c #a0a0a0",
".s c #8b8b8b",
".t c #3e3e3e",
".u c #878787",
".v c #151515",
".w c #2d2d2d",
".x c #8a8a8a",
".y c #171717",
".z c #202020",
".A c #0c0c0c",
".B c #191919",
".C c #222222",
".D c #333333",
".E c #2f2f2f",
".F c #353535",
".G c #cacaca",
".H c #e9e9e9",
".I c #5c5c5c",
".J c #c5c5c5",
".K c #323232",
".L c #d9d9d9",
".M c #f9f9f9",
".N c #ffffff",
".O c #fbfbfb",
".P c #c7c7c7",
".Q c #1e1e1e",
".R c #6c6c6c",
".S c #a7a7a7",
".T c #242424",
".U c #1a1a1a",
".V c #6e6e6e",
".W c #bababa",
".X c #efefef",
".Y c #fefefe",
".Z c #f6f6f6",
".0 c #eaeaea",
".1 c #e8e8e8",
".2 c #454545",
".3 c #d3d3d3",
".4 c #e0e0e0",
".5 c #f7f7f7",
".6 c #4f4f4f",
".7 c #232323",
".8 c #e4e4e4",
".9 c #f0f0f0",
"#. c #e7e7e7",
"## c #e5e5e5",
"#a c #bfbfbf",
"#b c #fcfcfc",
"#c c #d1d1d1",
"#d c #d2d2d2",
"#e c #ececec",
"#f c #f5f5f5",
"#g c #111111",
"#h c #363636",
"#i c #7f7f7f",
"#j c #e6e6e6",
"#k c #e2e2e2",
"#l c #e1e1e1",
"#m c #f4f4f4",
"#n c #cfcfcf",
"#o c #cdcdcd",
"#p c #d5d5d5",
"#q c #1c1c1c",
"#r c #101010",
"#s c #919191",
"#t c #666666",
"#u c #dfdfdf",
"#v c #dddddd",
"#w c #2e2e2e",
"#x c #dbdbdb",
"#y c #cecece",
"#z c #cccccc",
"#A c #c8c8c8",
"#B c #c6c6c6",
"#C c #c3c3c3",
"#D c #a3a3a3",
"#E c #1f1f1f",
"#F c #212121",
"#G c #a1a1a1",
"#H c #272727",
"#I c #565656",
"#J c #4e4e4e",
"#K c #b2b2b2",
"#L c #dedede",
"#M c #5d5d5d",
"#N c #6a6a6a",
"#O c #dadada",
"#P c #d0d0d0",
"#Q c #cbcbcb",
"#R c #c9c9c9",
"#S c #c4c4c4",
"#T c #c2c2c2",
"#U c #c1c1c1",
"#V c #373737",
"#W c #0f0f0f",
"#X c #969696",
"#Y c #d7d7d7",
"#Z c #d8d8d8",
"#0 c #d6d6d6",
"#1 c #d4d4d4",
"#2 c #bdbdbd",
"#3 c #494949",
"#4 c #181818",
"#5 c #343434",
"#6 c #dcdcdc",
"#7 c #bebebe",
"#8 c #bcbcbc",
"#9 c #0e0e0e",
"a. c #c0c0c0",
"a# c #bbbbbb",
"aa c #b8b8b8",
"ab c #414141",
"ac c #b6b6b6",
"ad c #f8f8f8",
"ae c #b9b9b9",
"af c #b7b7b7",
"ag c #b5b5b5",
"ah c #3d3d3d",
"ai c #404040",
"aj c #7b7b7b",
"ak c #b4b4b4",
"al c #afafaf",
"am c #444444",
"an c #161616",
"ao c #4b4b4b",
"ap c #b3b3b3",
"aq c #b1b1b1",
"ar c #adadad",
"as c #ababab",
"at c #8f8f8f",
"au c #b0b0b0",
"av c #aeaeae",
"aw c #acacac",
"ax c #a9a9a9",
"ay c #a6a6a6",
"az c #a4a4a4",
"aA c #9d9d9d",
"aB c #9b9b9b",
"aC c #a8a8a8",
"aD c #a5a5a5",
"aE c #9e9e9e",
"aF c #9c9c9c",
"aG c #9a9a9a",
"aH c #989898",
"aI c #383838",
"aJ c #8c8c8c",
"aK c #959595",
"aL c #939393",
"aM c #6d6d6d",
"aN c #a2a2a2",
"aO c #999999",
"aP c #979797",
"aQ c #949494",
"aR c #929292",
"aS c #909090",
"aT c #8d8d8d",
"aU c #292929",
"aV c #858585",
"aW c #3f3f3f",
"aX c #474747",
"aY c #868686",
"aZ c #525252",
"a0 c #2c2c2c",
"a1 c #7a7a7a",
"a2 c #4c4c4c",
"a3 c #585858",
"a4 c #686868",
"a5 c #7e7e7e",
"a6 c #898989",
"a7 c #717171",
"a8 c #3a3a3a",
"a9 c #515151",
"b. c #5a5a5a",
"b# c #424242",
"ba c #818181",
"bb c #050505",
"bc c #797979",
"bd c #505050",
"be c #747474",
"bf c #808080",
"bg c #7c7c7c",
"bh c #2a2a2a",
"bi c #4a4a4a",
"bj c #fafafa",
"bk c #1b1b1b",
"bl c #767676",
"bm c #737373",
"bn c #262626",
"bo c #f1f1f1",
"bp c #0d0d0d",
"bq c #0b0b0b",
"br c #787878",
"bs c #757575",
"bt c #6f6f6f",
"bu c #434343",
"bv c #3b3b3b",
"bw c #5e5e5e",
"bx c #696969",
"by c #252525",
"bz c #5f5f5f",
"bA c #575757",
"bB c #282828",
"bC c #010101",
"bD c #6b6b6b",
"bE c #676767",
"bF c #646464",
"bG c #636363",
"bH c #616161",
"bI c #000000",
"bJ c #5b5b5b",
"bK c #464646",
"bL c #656565",
"bM c #595959",
"bN c #3c3c3c",
"bO c #606060",
"bP c #555555",
"bQ c #545454",
"bR c #626262",
"bS c #535353",
"bT c #7d7d7d",
"bU c #313131",
/* pixels */
"................................................",
"..................aB.I.l.#.a.a.IaB..............",
".................l.n.i.m.n.i.i.i.i#t............",
"...............p.i.i#N.i.i.i.i.n.n.a............",
"...........H.0.z.iab.M.Gab.i.n.i.i#t............",
".......W.M.0.H.l.i#N.H.3.0#N.i.i.i.m.r...r......",
"......#K#X.H.4...p...3.G.J.I.i.i.i.i.6ab.z.r....",
"......#N.m.4.3.3.G.G.J.J.W.z.i.i.i.n.i.i.i.I....",
".....J.6.r.4.3.G.G.J.W.W#K#X.n.6#t.i.i.i.i.n.#..",
"..#K.0.0.0.3.G.J.J.W.W#Kzzzz.#.H.#.n.i.i.i.i#t..",
"...G.H.3.3.G.J.J.W.W#Kzzzz.r.raB#X.6.i.i.i.aaB..",
"...4.3.G.G.J.J.W#K#Kzzzz.r.raB#X#X#i.n.i.n#i....",
"..#X.r.G.J.J#K.W#K.raB.r.raB#X.#.#.c.a.n.i.6....",
"..aB.p.r.J.W#K#KaB.p.m#NaB#X.#.#.c.l.z.i.i.m....",
"....aBaB.W#K#Kzz#t.n.i.h.#.#.#.c#iab.i.i.i.i#g.I",
"....#K#K#Kzzzz.r.a.z.a.i#X.c.c#i.l.a.i.i.i.i.i.6",
"...W.Hzzzz.r.raB.a.I.m.i.l.##i.l.l.I.i.i.i.n.h#t",
"...J.Gzz.r.raB#X#tab#t.i.Izz.l#N#N#N.a.p.n.h.6#t",
".....3.r.raB#X#X#N.p.p#g.m#K.l#N#N#t.I.I.h.6ab.l",
".....3aBaB#X#X.#.c.c.i.i#t.r#N#t#t.I.6.6ababab..",
".....3.#.c.#.c.c.czz.l.p.J.l#t.I.I.I.6.6.pab....",
"....#X.a.p#N.c#i#i#i#K.G.c#t.I.I.6.6abab.n.p....",
"..........#t#i#i.l#N#N#t.I.I.I.6.6ab.m.z.i.naB..",
"...........J.l#N#N#N#t.I.I.6.6.a.a.h.i.i.i#i....",
"........#K.r.l#N#N#t.I.I.6.6.aabab.h.i.i.a......",
"..........#N#t#t#t.I.I.6.6.aabab.p.p.z.p.r......",
"...........rab.6.m.p.6.6.aab.p.p.h.h.p.r........",
".............r.I.c.c.p.aab.h.n.n.h.h#X..........",
"..................aB.mab.p.p.i.i.z.#............",
"...................r.z.m.m.mab#N................"
};
