/* XPM */
static char * getmail-up_xpm[] = {
"64 42 6 1",
" 	c gray75 s backgroundToolBarColor",
"@ 	c #C0C0C0C0C0C0",
".	c gray60",
"X	c #808080808080",
"o	c #FFFFFFFFFFFF",
"O	c gray60",
"                                                                ",
"                       .....                                    ",
"                     ..@@@XX..                                  ",
"                    .Xo@@@@@XX..                                ",
"                    .o@o@o@@@@XX..                              ",
"                   .ooooo@o@o@@@XX..                            ",
"                   .oooooooo@o@@@@XX..                          ",
"                  .o@oooooooo@o@o@@@XX..                        ",
"                  .@o@o@oooooooo@o@@@@XX..                      ",
"                  .o@o@o@o@oooooo@o@o@..@X.                     ",
"                  .@@@@@o@o@oooooooo@.X@X@X.                    ",
"                  .@@..X@@@o@o@ooooo.X@X@X@.                    ",
"                  .@@.O..X@@o@o@o@o@.@X@..X@.                   ",
"                  .@@.OO...X@@@o@o@.@X@.XX.X.                   ",
"                  .@@.OO.....X@@o@o.X@X.@@X..                   ",
"                  .@@.OO.@X....X@o@.@X@X.oX..                   ",
"                  .@@..O.@@@X....X@.X@X@.oX..                   ",
"                  ..@@X..@@@@@X..@@.@X@X@..X.                   ",
"                    ..@@@@@@@@@@X@@.X@X@X@X@.                   ",
"                      ..@@@@@@@@@@@.@X@X@X@X.                   ",
"                        ..@@@@@@@@@.X@X@X@X@.                   ",
"                         ...@@@@@@@.@X@X@X@..                   ",
"                            ..@@@@@.X@X@X..                     ",
"                             ...@@@.@X@..                       ",
"                               X..@.X..                         ",
"                                 ....                           ",
"                                                                ",
"                                                                ",
"                         .                                      ",
"          .....          ..       ..     ..        .. ..        ",
"         ..   ..         ..       ..     ..           ..        ",
"        ..        ....  ....      ...   ...  ....  .. ..        ",
"        ..       ..  ..  ..       ...   ... ..  .. .. ..        ",
"        ..  .... ..  ..  ..       .... ....     .. .. ..        ",
"        ..    .. ......  ..       .. . . ..  ..... .. ..        ",
"        ..    .. ..      ..       .. ... .. ..  .. .. ..        ",
"         ..   .. ..  ..  .. .     ..  .  .. ..  .. .. ..        ",
"          .... .  ....    ..      ..  .  ..  ... .... ..        ",
"                                                                ",
"                                                                ",
"                                                                ",
"                                                                "};
