#define getmail-up_width 64
#define getmail-up_height 42
static char getmail-up_bits[] = {
 0x00,0x00,0x00,0x00,0x00,0x00,0x00,0x00,0x00,0x00,0x80,0x0f,0x00,0x00,0x00,
 0x00,0x00,0x00,0x60,0x3c,0x00,0x00,0x00,0x00,0x00,0x00,0x70,0xf0,0x00,0x00,
 0x00,0x00,0x00,0x00,0xb0,0xc2,0x03,0x00,0x00,0x00,0x00,0x00,0xf8,0x15,0x0f,
 0x00,0x00,0x00,0x00,0x00,0xf8,0x2f,0x3c,0x00,0x00,0x00,0x00,0x00,0xec,0x5f,
 0xf1,0x00,0x00,0x00,0x00,0x00,0x54,0xff,0xc2,0x03,0x00,0x00,0x00,0x00,0xac,
 0xfa,0xd5,0x06,0x00,0x00,0x00,0x00,0x04,0xf5,0x6f,0x0d,0x00,0x00,0x00,0x00,
 0xe4,0xa8,0xbf,0x0a,0x00,0x00,0x00,0x00,0xe4,0x53,0x55,0x17,0x00,0x00,0x00,
 0x00,0xe4,0x8f,0xaa,0x1f,0x00,0x00,0x00,0x00,0xe4,0x3f,0xdd,0x1c,0x00,0x00,
 0x00,0x00,0xe4,0xfd,0xaa,0x1f,0x00,0x00,0x00,0x00,0xe4,0xf1,0x5b,0x1f,0x00,
 0x00,0x00,0x00,0xcc,0xc1,0xa9,0x1e,0x00,0x00,0x00,0x00,0x30,0x00,0x59,0x15,
 0x00,0x00,0x00,0x00,0xc0,0x00,0xa8,0x1a,0x00,0x00,0x00,0x00,0x00,0x03,0x58,
 0x15,0x00,0x00,0x00,0x00,0x00,0x0e,0xa8,0x1a,0x00,0x00,0x00,0x00,0x00,0x30,
 0x58,0x07,0x00,0x00,0x00,0x00,0x00,0xe0,0xa8,0x01,0x00,0x00,0x00,0x00,0x00,
 0x80,0x7b,0x00,0x00,0x00,0x00,0x00,0x00,0x00,0x1e,0x00,0x00,0x00,0x00,0x00,
 0x00,0x00,0x00,0x00,0x00,0x00,0x00,0x00,0x00,0x00,0x00,0x00,0x00,0x00,0x00,
 0x00,0x00,0x02,0x00,0x00,0x00,0x00,0x00,0x7c,0x00,0x06,0x0c,0x06,0xd8,0x00,
 0x00,0xc6,0x00,0x06,0x0c,0x06,0xc0,0x00,0x00,0x03,0x3c,0x0f,0x1c,0xe7,0xd9,
 0x00,0x00,0x03,0x66,0x06,0x1c,0x37,0xdb,0x00,0x00,0xf3,0x66,0x06,0xbc,0x07,
 0xdb,0x00,0x00,0xc3,0x7e,0x06,0xac,0xe6,0xdb,0x00,0x00,0xc3,0x06,0x06,0xec,
 0x36,0xdb,0x00,0x00,0xc6,0x66,0x16,0x4c,0x36,0xdb,0x00,0x00,0xbc,0x3c,0x0c,
 0x4c,0xe6,0xde,0x00,0x00,0x00,0x00,0x00,0x00,0x00,0x00,0x00,0x00,0x00,0x00,
 0x00,0x00,0x00,0x00,0x00,0x00,0x00,0x00,0x00,0x00,0x00,0x00,0x00,0x00,0x00,
 0x00,0x00,0x00,0x00,0x00,0x00};
