#define noname_width 64
#define noname_height 42
static char noname_bits[] = {
 0x80,0x10,0x00,0x80,0x04,0x20,0x00,0x10,0x29,0x84,0xaa,0x2a,0xa0,0x0a,0x4a,
 0x45,0x84,0x10,0x20,0x94,0x12,0xa0,0x20,0x10,0x21,0x45,0x95,0x52,0x04,0x15,
 0x88,0x44,0x04,0x08,0x00,0x40,0x51,0x40,0x21,0x02,0xa1,0xa2,0x0a,0x88,0x0a,
 0x12,0x8a,0x50,0x14,0x08,0x08,0x00,0x54,0x48,0x20,0x02,0x81,0x42,0x02,0x20,
 0xa2,0x02,0x8a,0x50,0x24,0x08,0x09,0x00,0x48,0xaa,0x20,0x0a,0x08,0x52,0x00,
 0x01,0x80,0x02,0x88,0x40,0xa2,0x80,0x2a,0x00,0x20,0x55,0x21,0x12,0x08,0x29,
 0x84,0x12,0xa0,0x08,0x0a,0x44,0x22,0x84,0x50,0x82,0x48,0x92,0xa0,0x10,0x08,
 0x21,0x44,0x29,0xa0,0x2a,0x12,0x44,0x20,0x84,0x92,0x92,0x18,0x85,0x48,0x11,
 0x8a,0x22,0xa4,0xa8,0xa4,0x28,0x02,0x04,0x20,0x88,0x48,0x45,0x52,0x84,0x28,
 0x51,0x4a,0x42,0x44,0x50,0x89,0x2a,0x42,0x04,0x00,0x09,0x11,0x01,0x51,0x84,
 0x08,0x51,0x54,0x50,0xa4,0x54,0xa4,0x2a,0x42,0x04,0x02,0x05,0x01,0x01,0x49,
 0x84,0x08,0x91,0x50,0x40,0x54,0x54,0x90,0x2a,0x42,0x20,0x82,0x8a,0x80,0x22,
 0x55,0x82,0x28,0x85,0x28,0x20,0x29,0x88,0x20,0x21,0x02,0x20,0x82,0x12,0x84,
 0x90,0x4a,0x94,0xa8,0x0a,0x20,0x04,0x21,0x24,0x14,0x01,0x02,0x40,0x8a,0x50,
 0x84,0x82,0x40,0x54,0xa8,0x0a,0x20,0x04,0x51,0x50,0x14,0x01,0x02,0x40,0x82,
 0x90,0x04,0x05,0x41,0x94,0x28,0x15,0x28,0x4a,0x40,0x42,0x14,0x02,0x89,0x40,
 0x42,0x92,0x0a,0x14,0x49,0x2a,0x24,0x12,0x10,0x22,0x50,0x45,0x12,0x42,0x91,
 0x44,0x42,0x89,0x4a,0x12,0xa4,0x14,0x49,0x10,0x28,0x52,0x22,0x04,0x11,0x45,
 0x4a,0x45,0x82,0x80,0x54,0xa9,0xa4,0x90,0x90,0x10,0x20,0x55,0x04,0x04,0x48,
 0x24,0x4a,0x04,0x0a,0x42,0x51,0x51,0x25,0x95,0x92,0x50,0xa0,0x28,0x2a,0x0a,
 0x48,0xa2,0x48,0x0a,0x02,0x82,0x80,0x50,0x02,0x08,0x02,0x21,0xa8,0x28,0x28,
 0x04,0xa4,0x82,0x50,0x48,0x02,0x82,0x82,0x50,0x11,0x14,0x05,0x01,0xa4,0x48,
 0x20,0x04,0x04,0x41,0x50,0x54};
