#define noname_width 64
#define noname_height 42
static char noname_bits[] = {
 0x00,0x00,0x00,0x00,0x00,0x00,0x00,0x00,0x00,0x00,0x00,0xf8,0x07,0x00,0x00,
 0x00,0x00,0x00,0x80,0x07,0x38,0x00,0x00,0x00,0x00,0x00,0x40,0x00,0xc0,0x41,
 0x00,0x00,0x00,0x00,0x30,0x00,0x00,0x02,0x10,0x00,0x00,0x20,0x08,0x48,0x12,
 0x44,0x06,0x00,0x00,0x2b,0x84,0x00,0x80,0x88,0x10,0x00,0x00,0x21,0x02,0x02,
 0x00,0x70,0x20,0x00,0x00,0xc2,0x09,0x90,0x24,0x24,0x29,0x00,0x00,0x00,0x40,
 0x00,0x00,0xc0,0x13,0x00,0x00,0xec,0x00,0x02,0x80,0x50,0x12,0x00,0x00,0x84,
 0x12,0x40,0x12,0x82,0x22,0x00,0x00,0x54,0x80,0x08,0x00,0x80,0x22,0x00,0x00,
 0xc4,0x00,0x00,0x40,0x58,0x4e,0x00,0x00,0x74,0x1c,0x22,0x09,0x3e,0x12,0x01,
 0x00,0x02,0x4c,0x00,0x00,0x8e,0xff,0x00,0x00,0xfe,0x39,0x08,0xc0,0x4f,0x00,
 0x00,0x00,0x00,0xf9,0x81,0xcc,0x5f,0x00,0x00,0x00,0x00,0xf1,0x17,0xfe,0x27,
 0x00,0x00,0x00,0x00,0xf6,0xff,0xff,0x13,0x00,0x00,0x00,0x00,0xcc,0xff,0xff,
 0x09,0x00,0x00,0x00,0x00,0x88,0xff,0x3d,0x06,0x00,0x00,0x00,0x00,0x70,0xbc,
 0xf7,0x01,0x00,0x00,0x00,0x00,0x80,0x41,0x6d,0x00,0x00,0x00,0x00,0x00,0x00,
 0xfe,0xd6,0x00,0x00,0x00,0x00,0x00,0x00,0xc0,0x7a,0x00,0x00,0x00,0x00,0x00,
 0x00,0x80,0x6d,0x00,0x00,0x00,0x00,0x00,0x00,0x80,0x1d,0x00,0x00,0x00,0x00,
 0x00,0x00,0x00,0x07,0x00,0x00,0x00,0x00,0x00,0x00,0x00,0x00,0x00,0x00,0x00,
 0x3c,0x00,0x60,0x83,0x0f,0x00,0x0c,0x18,0x6c,0x00,0x40,0x83,0x19,0x00,0x00,
 0x18,0xcc,0x9c,0x26,0x87,0x99,0xd3,0xcc,0x19,0xcc,0xb6,0x0d,0x83,0x59,0xb6,
 0x6d,0x19,0xcc,0xb6,0x0d,0x83,0x8f,0xb7,0x6d,0x18,0xcc,0xb6,0x0d,0x83,0xc1,
 0xb6,0x6d,0x18,0x6c,0xb6,0x0d,0x83,0xc1,0xb6,0x6d,0x01,0x3c,0x9c,0x0d,0x86,
 0x81,0xbd,0xcd,0x19,0x00,0x00,0x00,0x00,0x00,0x00,0x00,0x00,0x00,0x00,0x00,
 0x00,0x00,0x00,0x00,0x00,0x00,0x00,0x00,0x00,0x00,0x00,0x00,0x00,0x00,0x00,
 0x00,0x00,0x00,0x00,0x00,0x00};
