/* XPM */
static char *noname[] = {
/* width height ncolors chars_per_pixel */
"24 30 8 1",
/* colors */
"` c #000000",
"a c #817F53",
"b c #FFFAA3",
"c c #545236",
"d c #BFBC7A",
"e c #AAA76D s background",
"f c #242317",
"g c #D4D088",
/* pixels */
"eeeeeeacaeeeeeeeeeeeeeee",
"eeeeeaaaacaeeeeeeeeeeeee",
"eeeeadgddeaaaaaeeeeeeeee",
"eeeagbbbdggdeeaccaeeeeee",
"eeeabbbbbbbbdgddeaaaaaee",
"eeeaaaaaedbbbbbbbddecfae",
"eeeeeaaaccfadbbbbbbffffe",
"eeeeeadcccccccaaegeccffe",
"eeeeeebbbbaacacacfcaafce",
"eeeeadbdbbddddeaaccaafce",
"eeeeabdgbbdddddbbgded`ae",
"eeeeebbddebdbbbgdedbafee",
"eeeagbdgddbdddgbbbbbccee",
"eeeabbbbgdedbbbdeebb`aee",
"eeeabbgdgbbbbddgbbbdfaee",
"eeedbbbbbbbbbbbbbbbcceee",
"eeabbbbbbbbbbbbbbbbfaeee",
"eeabgdbdbbbbbbbbbbg`aeee",
"eeedbbbddaegbbbbbbafeeee",
"eagbbbbbbgddddddbbcceeee",
"eabgdgdbbbbdeddbbb`aeeee",
"eebdbbbdadebbbdbbefaeeee",
"adbggeddbgggdddbbcceeeee",
"cbbbbbbdadddbbgbbfaeeeee",
"acedbbbbbbbgedbbdfaeeeee",
"acf``caebbbbbbbbafeeeeee",
"eeeacff``febbbbbfceeeeee",
"eeeeeeaacf``faed`aeeeeee",
"eeeeeeeeeeaaff``faeeeeee",
"eeeeeeeeeeeeeaacaeeeeeee"
};
