/* XPM */
static char *noname[] = {
/* width height ncolors chars_per_pixel */
"64 42 8 1",
/* colors */
"` c #000000000000",
"a c #B8B878785050",
"b c #D0D0A8A88888",
"c c #585838383838",
"d c #303028282828",
"e c #FFFFFFFFFFFF",
"f c #D0D090906868",
"g c #909050504040",
/* pixels */
"aaaaaaaaaaaffffffffffffffffffffffbfffffffbbfffbffbfbfffffffffffa",
"faaaaaaaaaffffffffffffffffffffffffffffffffffffbbffffffffffffffaf",
"aaaaaaaaafffafaffffffffffaffffffffffffffffffffffffffffffffffffff",
"aaaaaaaaaaaaafffafffffafffffffafffffffafffffffffffffffffffffffff",
"aaaaaaaaaaaaaaaaaaaaaaaaaaaaaaaaaaaaafffafffffffffffffffffffafaf",
"aaaaaaaaaaaaaaaaaaaaaaaaaaaaaaaaaaaaaaaaaaaaafffffffaffaaaaaafaf",
"aaaaaaaaaggaaagaagaggagggggaaaagaaaaaaaaaaaaaaaaaaaffaaaaaaaaaaa",
"aagaagaaagaaggggggagagaaggaggaaaaaaaaaaaaaaaaaaaaaaaaaaaaaaaaaaa",
"aaagggggggaggggggggggggggggaaaaaaaaaaaaaaaaaaaaaaaaaaaaaaaaaaaaa",
"aaaaggggggggggggggggggggggggggagaaaaaaaaaaaaaaaaaaaaaaaaaaaaaaaa",
"aaggggggggggggggggggggggggggggaaaaaaaaaaaaaaaaafaaaaaaaaaaafaaaa",
"aaggggagggggggggggggggggggggaaaaaaaaaaaaaaaaaaaafaffaafaafaafaaa",
"aaaagagagggggggggggggggggggggggagaaaaaaaaaaaaaaafaaaffaaaffaaaaa",
"aaaaaaaaaggggggggggggggggggggggggggggaaaaaaaaaaaaaffaafaaaaaaaaa",
"aaaaaaaaaaggggggggcccccccccccccggggggggggaaaaaaaaaaaaaaaaaaaaaaa",
"aaaaaaaaaaggggcgcccccccccccccccccggggggggggggaaaaaaaaaaaaaaaaaaa",
"aaaaaaaaaagggcgcccccccccccccccccccgggggggggggggaaaaaaaaaaaaaaaaa",
"aaaaaaaaaaggggcccccccccccccccccccccccccggggggggggaaaaaaaaaaaaaaa",
"aaaaaaaaaggggccccccccccccccccccccdcdccccggccggggggggaaaaaaaaaaaa",
"faaaaaaaggggccccccgcggcccccdcddccccccccccccggggggggggaaaaaaaaaaa",
"aaaaaaaggggggggggggagccccccdcddggggccccccccccgggggggggaaaaaaaaaa",
"aaaaaaagggggggggaaaagggcccddddcggagccccggccccgggggggggaaaaaaaaff",
"aaaaaagggggggggaaaaaggggccddddcgaaagccgaagcccccgggggagaaaaaaafff",
"aaaaaagggggggaaaaaaaaggcccddddcggaggcggaaaggccccgggggaaaaaaaafaf",
"aaaaaaggggggaaaaaaaaaggggggccdcggggggggaaaaaggcgggggaaaaaaaaffff",
"aaaaaaaagggaaaaaaaaaagggggggccccgggcggaffafaaggggggaggaaaafaffff",
"faaaaaaaeeeeeaaaafffaaggggggggggggggggbbfeeaaaaaaagggaaaffffffff",
"faaaaaaaeegaeeaafffffagggggggagggggggfbfbeeaaaaaaaaaaaffffffffff",
"afaaaaaeegggeeaaeeeeffaeeeegggeeeeggfeefeeaaeeeeaaafffffffffffff",
"ffffaaaeeaggeeaeeffeebeeggeegeeggeefeebeeeaeeaaeaaaaffffffffffff",
"ffffaaeeaaggeeeeaffeeeefaaggeegggeeeebfaeeeeaaaeaaaaffffffffffff",
"ffffaaeeagaeeaeeeeeefeefffaaeeaaeebeefaeeaeeeeeeafafffffffffffff",
"ffffaaeeaaaeeeeaaaaaeeaffeeeeff``eeefa``e``a``aaaaf``f`````fffff",
"fffffeeaaaeeaeeaaeeaeeaaeeaeeaa```eea```a``a```aaf```f``fffbfbff",
"fffffeeeeeeaaaeeeeaaaeeeeaaaeee```aee```a``e```ffa```f``fffffbff",
"ffffffaaaaaaaaaaaaaaaaaaaaaaaaa````a````f``f````f````f`````fbffb",
"fffffffaaaaaaaaaaaaaaaaaaaaaaaa``f`a`f``a``f``f`f`f``b``bfbfbffb",
"ffffffffaaaaaaaaaaaaaaaaaaaaaaa``f```f``f``f``f```f``f``fbfbfbfb",
"ffffffffaaafaaaaaaaaaaaaaaaaaaa``ff`ff``f``f``fb`bf``b``bfbfbbbf",
"ffffffffffafaffaaaaaaaaaafffaaa``ff`ff``f``f``bf`fb``b`````bfbfb",
"ffbfffffffffffffafaaaffffffaffaffffffffbffbfbfbfbbfbbfbbbbfbfbff",
"fffffffffffffffffffffffffffffffffffffffbffbbfbfbbbbbbffbfbfbffbf"
};
