#define ee_width 64
#define ee_height 42
static char ee_bits[] = {
 0xc6,0x01,0x00,0x00,0x00,0x00,0x00,0x00,0x00,0x00,0x00,0x00,0x00,0x00,0x00,
 0x00,0x08,0x00,0x00,0x00,0x00,0x00,0x00,0x00,0x00,0x00,0x00,0x00,0x00,0x00,
 0x00,0x00,0x70,0x25,0x80,0x47,0x00,0x00,0x00,0x00,0x00,0x00,0x00,0x00,0x00,
 0x00,0x00,0x00,0xfe,0xff,0xff,0xff,0xff,0x12,0x40,0x12,0x00,0x00,0x00,0x00,
 0x00,0x00,0x00,0x00,0xfd,0xff,0xff,0xff,0x4f,0x99,0xb3,0xc9,0x00,0x00,0x00,
 0x00,0x00,0x00,0x00,0x00,0xff,0xff,0xff,0xff,0x2f,0x00,0x00,0x00,0x00,0x00,
 0x00,0x00,0x00,0x00,0x00,0x00,0xff,0xff,0xff,0xff,0xbb,0x08,0x00,0x80,0x00,
 0x00,0x00,0x00,0x00,0x00,0x00,0x00,0xdf,0xff,0xff,0xff,0xff,0x3f,0x03,0x00,
 0x00,0x00,0x00,0x00,0x00,0x00,0x00,0x00,0x94,0xff,0xff,0xff,0xff,0xff,0xaf,
 0x08,0x00,0x00,0x00,0x00,0x00,0x00,0x00,0x00,0xc0,0xff,0xff,0xff,0xf5,0xff,
 0x7f,0x01,0x00,0x00,0x00,0x00,0x00,0x00,0x00,0x00,0xd0,0xff,0xff,0x97,0xff,
 0xff,0xff,0x03,0x00,0x00,0x00,0x00,0x00,0x00,0x00,0x00,0xe0,0x7f,0xf1,0xc3,
 0xfd,0xff,0xff,0x01,0x00,0x00,0x00,0x00,0x00,0x00,0x00,0x00,0xf0,0x0f,0xf0,
 0xdf,0x7f,0xf8,0x7f,0x00,0x00,0x00,0x00,0x00,0x00,0x00,0x00,0x00,0xa0,0x00,
 0xe0,0xff,0x3f,0xf8,0x3f,0x00,0x00,0x00,0x00,0x00,0x00,0x00,0x00,0x00,0x00,
 0x0e,0x00,0x38,0x0c,0x0c,0x03,0x00,0x00,0x00,0x00,0x00,0x00,0x00,0x00,0x00,
 0x00,0x0e,0x00,0xcf,0x01,0x30,0x00,0x00,0x00,0x00,0x00,0x00,0x00,0x00,0x00,
 0x00,0x00,0x07,0x00,0x80,0xc1,0x36,0xd8,0x07,0x00,0x00,0x00,0x00,0x00,0x00,
 0x00,0x00,0x00,0x30,0x1c,0x80,0xe3,0x76,0xdc,0x00,0x00,0x00,0x00,0x00,0x00,
 0x00,0x00,0x00,0x00,0x00,0x59,0x90,0xd5,0xb6,0xda,0x00,0x00,0x00,0x00,0x00,
 0x00,0x00,0x00,0x00,0x00,0x00,0x00,0x80,0xc9,0x36,0xd9,0x00,0x00,0x00,0x00,
 0x00,0x00,0x00,0x00,0x00,0x00,0x00,0x00,0x00,0x00,0x00,0x00,0x00,0x00,0x00,
 0x00,0x00,0x00,0x00,0x00,0x00};
