/* XPM */
static char * mime-fancy-up_xpm[] = {
"64 42 89 1",
" 	c #B8B878785050",
".	c #B0B070705050",
"X	c #B0B070704848",
"o	c #C8C880806060",
"O	c #C8C888885858",
"+	c #C8C888886060",
"@	c #D0D090906868",
"#	c #D8D898987070",
"$	c #D0D090907070",
"%	c #D0D098987070",
"&	c #D8D8A0A08080",
"*	c #D8D8A0A07878",
"=	c #C0C088886060",
"-	c #D0D088886060",
";	c #C0C088885858",
":	c #B0B078785858",
">	c #B0B070705858",
",	c #C0C078785858",
"<	c #D0D098986868",
"1	c #B8B870705050",
"2	c #C0C080805050",
"3	c #C8C898987070",
"4	c #A8A870704848",
"5	c #B0B068684848",
"6	c #A8A868684848",
"7	c #A0A068684848",
"8	c #A8A860604848",
"9	c #A0A068684040",
"0	c #A0A068685050",
"q	c #A0A060604848",
"w	c #989860604848",
"e	c #989858584040",
"r	c #909050504040",
"t	c #909060604040",
"y	c #B8B878786060",
"u	c #B8B880806060",
"i	c #909058584040",
"p	c #989860604040",
"a	c #A0A070704848",
"s	c #808058584040",
"d	c #A8A870705050",
"f	c #B8B880805858",
"g	c #787848483838",
"h	c #686848483838",
"j	c #686840404040",
"k	c #606040403838",
"l	c #585838383838",
"z	c #505038383838",
"x	c #787848484040",
"c	c #484830303838",
"v	c #484838383838",
"b	c #505038383030",
"n	c #606048484040",
"m	c #707050504040",
"M	c #787850504040",
"N	c #808048484040",
"B	c #B0B078785050",
"V	c #808050504040",
"C	c #606040404040",
"Z	c #A0A070705050",
"A	c #404038383838",
"S	c #808058584848",
"D	c #505040403838",
"F	c #484838383030",
"G	c #404030303030",
"H	c #686848484040",
"J	c #383830303030",
"K	c #808068685050",
"L	c #888860604848",
"P	c #888868685050",
"I	c #303028282828",
"U	c #888858584848",
"Y	c #A8A878785858",
"T	c #383828282828",
"R	c #989868684848",
"E	c #B8B880806868",
"W	c #909060604848",
"Q	c #C8C898987878",
"!	c #C8C890907878",
"~	c Gray60",
"^	c #C0C088886868",
"/	c #D0D0A8A88888",
"(	c #D0D0A0A08080",
")	c #C8C890907070",
"_	c #C8C888887070",
"`	c #B0B080805858",
"'	c Gray60",
"]	c #D0D098988080",
"[	c black s backgroundToolBarColor",
" [.[ [X[.[ [o[+[+[+[@[@[@[$[%[@[%[%[#[%[%[*[%[*[%[%[%[@[@[+[O[o[",
"[:[ [ [>[,[o[o[+[@[+[@[+[@[@[-[@[$[@[<[%[%[%[%[&[%[%[@[@[@[+[O[O",
"1[ [ [ [ [o[2[;[+[-[+[@[@[+[+[@[@[@[@[$[@[@[$[%[%[#[$[@[+[+[O[O[",
"[>[.[.[.[ [,[o[o[=[o[+[o[+[o[o[=[+[+[o[=[+[+[$[@[$[$[@[+[+[o[o[+",
"2[ [.[.[.[.[ [ [,[ [ [ [X[.[ [.[ [ [ [o[ [o[@[@[@[@[@[+[=[o[;[;[",
"[.[1[4[4[4[4[.[4[1[4[5[6[7[4[4[4[.[.[ [ [ [2[o[=[o[o[o[2[ [2[o[o",
" [4[6[4[6[9[4[9[6[8[9[9[9[9[4[4[.[4[X[.[ [ [.[ [ [,[o[.[>[>[.[2[",
"[6[4[9[6[9[4[9[q[9[9[9[8[w[9[8[6[X[X[.[X[ [ [ [.[.[.[ [X[>[X[>[ ",
".[4[9[9[q[8[9[q[q[q[q[q[w[q[6[6[4[4[>[X[.[ [.[:[.[:[.[>[.[ [>[.[",
"[X[6[q[9[q[q[e[q[q[w[w[w[t[q[q[q[4[4[.[.[ [ [ [ [.[ [ [.[ [ [ [ ",
"6[9[q[9[9[q[w[e[r[w[r[e[q[q[t[6[6[.[>[ [ [ [ [ [2[2[ [y[u[y[2[ [",
"[7[q[9[9[q[t[q[r[r[w[t[q[q[q[6[6[>[.[.[ [.[ [ [2[ [o[y[ [o[,[ [ ",
"6[6[q[q[q[q[t[q[q[e[t[w[q[t[9[q[9[>[4[>[>[ [y[ [o[2[o[2[,[o[ [ [",
"[6[6[6[a[9[q[t[q[e[r[s[s[i[t[w[t[w[9[4[6[>[.[ [ [y[o[ [ [,[2[f[.",
"X[X[X[X[8[q[q[w[s[h[j[l[z[k[k[h[g[s[r[t[q[6[6[>[.[ [ [ [2[y[2[ [",
"[ [ [1[.[4[w[r[x[c[k[v[c[b[l[j[h[m[N[N[N[s[q[7[6[B[.[y[.[2[y[ [ ",
" [.[.[1[6[q[V[m[k[j[l[z[c[c[c[l[k[m[s[M[M[s[t[9[X[.[>[ [ [>[ [ [",
"[ [ [>[>[7[g[x[n[k[v[l[v[c[A[l[v[l[k[k[m[s[M[M[t[7[6[>[>[ [ [:[ ",
"2[ [ [X[7[x[x[h[n[l[D[A[l[l[A[F[F[F[A[k[x[h[s[M[M[t[7[d[Z[:[>[y[",
"[2[ [:[7[N[s[h[n[D[n[m[v[l[G[G[A[D[v[v[k[k[m[s[s[x[t[d[d[:[ [ [ ",
"2[ [.[6[s[s[s[x[m[m[S[l[k[F[F[G[K[m[v[l[k[k[n[S[s[s[t[d[6[>[ [y[",
"[y[ [a[N[t[t[s[P[a[:[m[n[v[I[I[P[Z[k[l[P[k[k[m[x[t[P[q[0[>[ [u[=",
"2[y[>[q[w[V[t[P[a[:[L[m[l[G[T[D[Z[Z[D[x[Z[n[n[n[s[t[7[0[Z[Y[ [=[",
"[2[:[6[t[w[t[d[Y[:[y[P[n[A[J[G[P[Z[m[m[Y[Z[m[n[h[S[t[>[.[:[y[o[+",
"2[ [.[q[R[P[>[:[u[u[Z[m[s[m[A[v[P[P[S[P[E[y[m[C[m[s[0[Z[ [y[o[o[",
"[u[:[6[7[9[Z[:[:[u[u[L[s[P[S[k[n[P[n[L[Q[y[u[S[s[s[0[t[ [y[u[+[$",
"=[ [:[>[~[~[~[:[u[=[u[L[K[L[P[P[K[P[P[/[Q[~[0[d[0[P[P[f[o[=[+[=[",
"[u[ [.[Z[~[7[~[u[)[3[u[L[K[P[Z[P[P[K[Q[3[~[d[d[d[>[u[u[=[=[$[+[!",
"u[u[ [:[~[q[~[:[~[~[3[Y[~[~[P[~[~[P[)[~[~[Z[~[~[d[:[=[=[$[![$[$[",
"[![=[>[~[7[q[~[~[=[~[/[~[P[~[~[P[~[=[~[~[~[~[d[~[:[y[=[=[![$[)[=",
"o[o[ [~[>[q[~[~[y[)[~[~[Z[K[~[K[P[~[~[)[~[~[d[Y[>[u[+[+[$[$[@[$[",
"[+[=[>[~[q[~[d[~[~[~[~[Q[![Y[~[u[~[~[![~[`[~[~[~[=[=[$[$[$[$[$[$",
"$[+[u[~[7[6[~[~[Y[>[~[2[)[~[~[!['[~[!['[~['['[:[u[=['['['['[%[#[",
"[=[=[~[d[d[~[~[X[~[:[~[u[~[~[u['['[~['['['[f['[u[o['[$['[%[([([%",
"@[+[o[~[~[~[6[~[~[6[.[~[~[u[~[~['[y[~['[u['['['[=['['['[$[%[%[%[",
"[$[=[=[2[.[:[Z[Z[0[.[>[Z[y[:[y['['[:['['['[o['['['['[%['['[%[#[(",
"$[$[+[o[u[y[ [>[0[2[.[Z[>[>[7[:['['['['[u['['[$[$[%['['[&[&[&[%[",
"[3[$[@[o[u[u[ [Z[:[Z[Z[>[ [y[y['[+['[!['['[$['['['['[%['[([([&[*",
"3[%[$[+[u[u[u[y[ [ [y[y[y[u[:[u['[![$['[)['['[%['[%['['[([([&[&[",
"[3[$[$[+[o[o[=[u[2[u[u[2[=[=[u['[!['[!['['[!['[$[$['[&['['[([&[(",
"%[][$[$[+[=[=[=[u[y[u[o[o[o[@[u[$[![)[$[$[([([([([%[&[&[&[%[%[%[",
"[$[#[$[@[$[=[=[=[=[o[=[=[+[$[$[$[$[$[$[([%[([([([([([%[([&[&[#[%"};
