/* XPM */
static char *noname[] = {
/* width height ncolors chars_per_pixel */
"64 42 8 1",
/* colors */
"` c #000000000000",
"a c #D0D0A8A88888",
"b c #B8B870705050",
"c c #888868685050",
"d c #999999999999",
"e c #505040403838",
"f c #303028282828",
"g c #787848483838",
/* pixels */
"b`b`b`b`b`b`b`b`b`b`a`a`a`a`a`a`a`a`a`a`a`a`a`a`a`a`a`a`a`b`b`b`",
"`b`b`b`b`b`b`b`b`a`b`a`b`a`a`b`a`a`a`a`a`a`a`a`a`a`a`a`a`a`b`b`b",
"b`b`b`b`b`b`b`b`b`b`b`a`a`b`b`a`a`a`a`a`a`a`a`a`a`a`a`a`b`b`b`b`",
"`b`b`b`b`b`b`b`b`b`b`b`b`b`b`b`b`b`b`b`b`b`b`a`a`a`a`a`b`b`b`b`b",
"b`b`b`b`b`b`b`b`b`b`b`b`b`b`b`b`b`b`b`b`b`b`a`a`a`a`a`b`b`b`b`b`",
"`b`b`b`b`b`b`b`b`b`b`b`b`c`b`b`b`b`b`b`b`b`b`b`b`b`b`b`b`b`b`b`b",
"b`b`b`b`b`c`b`c`b`b`c`c`c`c`b`b`b`b`b`b`b`b`b`b`b`b`b`b`b`b`b`b`",
"`b`b`c`b`c`b`c`c`c`c`c`b`c`c`b`b`b`b`b`b`b`b`b`b`b`b`b`b`b`b`b`b",
"b`b`c`c`c`b`c`c`c`c`c`c`c`c`b`b`b`b`b`b`b`b`b`b`b`b`b`b`b`b`b`b`",
"`b`b`c`c`c`c`c`c`c`c`c`c`c`c`c`c`b`b`b`b`b`b`b`b`b`b`b`b`b`b`b`b",
"b`c`c`c`c`c`c`c`g`c`g`c`c`c`c`b`b`b`b`b`b`b`b`b`b`b`b`b`b`b`b`b`",
"`c`c`c`c`c`c`c`g`g`c`c`c`c`c`b`b`b`b`b`b`b`b`b`b`b`b`b`b`b`b`b`b",
"b`b`c`c`c`c`c`c`c`c`c`c`c`c`c`c`c`b`b`b`b`b`b`b`b`b`b`b`b`b`b`b`",
"`b`b`b`b`c`c`c`c`c`g`g`g`c`c`c`c`c`c`b`b`b`b`b`b`b`b`b`b`b`b`b`b",
"b`b`b`b`b`c`c`c`g`g`g`e`e`e`e`g`g`g`g`c`c`b`b`b`b`b`b`b`b`b`b`b`",
"`b`b`b`b`b`c`g`g`e`e`e`e`e`e`g`g`g`g`g`g`g`c`c`b`b`b`b`b`b`b`b`b",
"b`b`b`b`b`c`g`g`e`g`e`e`e`e`e`e`e`g`g`g`g`g`c`c`b`b`b`b`b`b`b`b`",
"`b`b`b`b`c`g`g`e`e`e`e`e`e`e`e`e`e`e`e`g`g`g`g`c`c`b`b`b`b`b`b`b",
"b`b`b`b`c`g`g`g`e`e`e`e`e`e`e`e`e`e`e`e`g`g`g`g`g`c`c`b`b`b`b`b`",
"`b`b`b`c`g`g`g`e`e`e`g`e`e`f`f`e`e`e`e`e`e`g`g`g`g`c`b`b`b`b`b`b",
"b`b`b`b`g`g`g`g`g`g`c`e`e`e`e`f`c`g`e`e`e`e`e`c`g`g`c`b`b`b`b`b`",
"`b`b`b`g`c`c`g`c`b`b`g`e`e`f`f`c`b`e`e`c`e`e`g`g`c`c`c`c`b`b`b`b",
"b`b`b`c`c`g`c`c`b`b`c`g`e`f`f`e`b`b`e`g`b`e`e`e`g`c`c`c`b`b`b`b`",
"`b`b`b`c`c`c`b`b`b`b`c`e`e`f`f`c`b`g`g`b`b`g`e`g`c`c`b`b`b`b`b`b",
"b`b`b`c`c`c`b`b`b`b`b`g`g`g`e`e`c`c`c`c`b`b`g`e`g`g`c`b`b`b`b`b`",
"`b`b`b`c`c`b`b`b`b`b`c`g`c`c`e`e`c`e`c`a`b`b`c`g`g`c`c`b`b`b`b`a",
"b`b`b`b`d`d`d`b`b`b`b`c`c`c`c`c`c`c`c`a`a`d`c`b`c`c`c`b`b`b`b`b`",
"`b`b`b`b`d`c`d`b`a`a`b`c`c`c`b`c`c`c`a`a`d`b`b`b`b`b`b`b`b`a`b`a",
"b`b`b`b`d`c`d`b`d`d`a`b`d`d`c`d`d`c`a`d`d`b`d`d`b`b`b`b`a`a`a`a`",
"`a`b`b`d`c`c`d`d`b`d`a`d`c`d`d`c`d`b`d`d`d`d`b`d`b`b`b`b`a`a`a`b",
"b`b`b`d`b`c`d`d`b`a`d`d`b`c`d`c`c`d`d`a`d`d`b`b`b`b`b`b`a`a`a`a`",
"`b`b`b`d`c`d`b`d`d`d`d`a`a`b`d`b`d`d`a`d`b`d`d`d`b`b`a`a`a`a`a`a",
"a`b`b`d`c`b`d`d`b`b`d`b`a`d`d`a`d`d`a`d`d`d`d`b`b`b`d`d`d`d`a`a`",
"`b`b`d`b`b`d`d`b`d`b`d`b`d`d`b`d`d`d`d`d`d`b`d`b`b`d`a`d`a`a`a`a",
"a`b`b`d`d`d`b`d`d`b`b`d`d`b`d`d`d`b`d`d`b`d`d`d`b`d`d`d`a`a`a`a`",
"`a`b`b`b`b`b`b`b`c`b`b`b`b`b`b`d`d`b`d`d`d`b`d`d`d`d`a`d`d`a`a`a",
"a`a`b`b`b`b`b`b`c`b`b`b`b`b`c`b`d`d`d`d`b`d`d`a`a`a`d`d`a`a`a`a`",
"`a`a`a`b`b`b`b`b`b`b`b`b`b`b`b`d`b`d`a`d`d`a`d`d`d`d`a`d`a`a`a`a",
"a`a`a`b`b`b`b`b`b`b`b`b`b`b`b`b`d`a`a`d`a`d`d`a`d`a`d`d`a`a`a`a`",
"`a`a`a`b`b`b`b`b`b`b`b`b`b`b`b`d`a`d`a`d`d`a`d`a`a`d`a`d`d`a`a`a",
"a`a`a`a`b`b`b`b`b`b`b`b`b`b`a`b`a`a`a`a`a`a`a`a`a`a`a`a`a`a`a`a`",
"`a`a`a`a`a`b`b`b`b`b`b`b`b`a`a`a`a`a`a`a`a`a`a`a`a`a`a`a`a`a`a`a"
};
