/* XPM */
static char *noname[] = {
/* width height ncolors chars_per_pixel */
"64 42 8 1",
/* colors */
"` c Gray60",
"a c #666666666666",
"b c #9A9A9A9A9A9A",
"c c #B0B0B0B0B0B0",
"d c #2A2A2A2A2A2A",
"e c #878787878787",
"f c Gray60",
"g c #434343434343",
/* pixels */
"eeeeeeeeeeebbbbbbbbbbbbbbcbbccbccccccccccccccccccccccbbbbbbbbbbb",
"beeeeeeeeebbbbbbbbbbbbbbbbbbbbbbbbbbbbccccbcccccccccbbbbbbbbbbbb",
"eeeeeeeeebbbebbbbbbbbbbbbbbbbbbbbbbbbbbbbbbcbcccccccbbbbbbbbbbbb",
"eeeeeeeeeeeeebbbbbbbbbbbbbbbbbbbbbbbbbbbbbbbbbbbbbbbbbbbbbbbbbbb",
"eeeeeeeeeeeeeeeeeeeeeeeeeeeeeeeeeeeeebbbebbbbbbbbbbbbbbbbbbbbbbb",
"eeeeeeeeeeeeeeeeeeeeeeeeeaeeeeeeeeeeeeeeeeeeebbbbbbbbbbeeeeeebeb",
"eeeeeeeaeaaeeeaeeaaaaeaaaaaaeeeaeeeeeeeeeeeeeeeeeeebbeeeeeeeeeee",
"eeaeeaeeeaeeaaaaaaeaeaeaaaeaaaeeeeeeeeeeeeeeeeeeeeeeeeeeeeeeeeee",
"eeeaaaaaaaaaaaaaaaaaaaaaaaaeeeeaeeeeeeeeeeeeeeeeeeeeeeeeeeeeeeee",
"eeeeaaaaaaaaaaaaaaaaaaaaaaaaaaeaeeeeeeeeeeeeeeeeeeeeeeeeeeeeeeee",
"eaaaaaaaaaaaaaaaaaaaaaaaaaaaaaeeeeeeeeeeeeeeeeebeeeeeeeeeeebeeee",
"eaaaaaeaaaaaaaaaaaaaaaaaaaaaeeeeeeeeeeeeeeeeeeeebebbeebeebeebeee",
"eeeaaeaeaaaaaaaaaaaaaaaaaaaaaaaeaeeeeeeeeeeeeeeebeeebbeeebbeeeee",
"eeeeeeeeeaaaaaaaaaaaaaaaaaaaaaaaaaaaaeeeeeeeeeeeeebbeebeeeeeeeee",
"eeeeeeeeaeaaaaaaaagggggggggggggaaaaaaaaaaaeeeeeeeeeeeeeeeeeeeeee",
"eeeeeeeeeeaaaagagggggggggggggggggaaaaaaaaaaaaaeeeeeeeeeeeeeeeeee",
"eeeeeeeeeeaaagagggggggggggggggggggaaaaaaaaaaaaaeeeeeeeeeeeeeeeee",
"eeeeeeeeaaaaaagggggggggggggggggggggggggaaaaaaaaaaaeeeeeeeeeeeeee",
"eeeeeeeeaaaaaggggggggggggggggggggdgdggggaaggaaaaaaaaaaeeeeeeeeee",
"beeeeeeaaaaaggggggagaagggggdgddggggggggggggaaaaaaaaaaeeeeeeeeeee",
"eeeeeeeaaaaaaaaaaaaeaggggggdgddaaaaggggggggggaaaaaaaaaeeeeeeeeee",
"eeeeeeeaaaaaaaaaeeeeaaagggddddgaaeaggggaaggggaaaaaaaaaaeeeeeeebb",
"eeeeeeaaaaaaaaaeeeeeaaaaggddddgaeeeaggaeeagggggaaaaaaaeaeeeeebbb",
"eeeeeeaaaaaaaeeeeeeeeaagggddddgaaeaagaaeeeaaggggaaaaaeeeeeeeebeb",
"eeeeeeaaaaaaeeeeeeeeeaaaaaaggdgaaaaaaaaeeeeeaagaaaaaeeeeeeebbbbb",
"eeeeeeeaaaaeeeeeeeeeeaaaaaaaggggaaagaaebbebeeaaaaaaeaaeeeebebbbb",
"beeeeeeefffffeeeebbbeeaaaaaaaaaaaaaaaaccbffeeaeeeeaaaeeebbbbbbbb",
"beeeeeeeffaaffeebbbbbeaaaaaaaeaaaaaaabcbcffeeeeeeeeeeebbbbbbbbbb",
"ebeeeeeffaaaffeeffffbbeffffaaaffffaabffbffeeffffeeebbbbbbbbbbbbb",
"bbbbeeeffaaaffeffbbffcffaaffaffaaffbffcfffeffeefeeeebbbbbbbbbbbb",
"bbbbeeffeeaaffffebbffffbeeaaffaaaffffcbeffffeeefeeeebbbbbbbbbbbb",
"bbbbeeffeaeffeffffffbffbbbeeffeeffcffbeffeffffffebebbbbbbbbbcbbb",
"bbbbeeffaeeffffeeeeeffebbffffbb``fffbe``f``e``eeeeb``b`````bcccc",
"bbbbbffeeeffeffeeffeffeeffeffee```ffe```e``e```eeb```b``ccbccccc",
"bbbbbffffffeeeffffeeeffffeeefff```eff```e``f```bbe```b``bccccccb",
"bbbbbbeeeeeeeeeeeeeeeeeeeeeeeee````e````b``b````b````c`````ccccc",
"bbbbbbbeeeeeeeeeeeeeeeeeeeeeaee``b`e`b``e``b``b`b`c``c``cbcccbcc",
"bbbbbbbbeeeeeeeeeeeeeeeeeeeeeee``b```b``b``b``b```c``c``cccccccc",
"bccbbbbbeeebeeeeeeeeeeeeeeeeeee``bb`bb``b``b``cc`cc``c``cccccccc",
"bbcbbbbbbbebebbeeeeeeeeeebbbeee``bb`bb``b``b``cb`bc``c`````ccccc",
"ccccbbbbbbbbbbbbebeeebbbbbbebbebbbbbbbbcbccccbcccccccccccccccccc",
"bbcccbbbbbbbbbbbbbbbbbbbbbbbbbbbbbbbbbccbccccccccccccccccccccccc"
};
