/* XPM */
static char *mime-colorful-dn[] = {
/* width height num_colors chars_per_pixel */
"    64    42       88            2",
/* colors */
".. c #878787",
".# c #818181",
".a c #7f7f7f",
".b c #939393",
".c c #969696",
".d c #979797",
".e c #9f9f9f",
".f c #a7a7a7",
".g c #a1a1a1",
".h c #a5a5a5",
".i c #aeaeae",
".j c #adadad",
".k c #959595",
".l c #9a9a9a",
".m c #939393",
".n c #868686",
".o c #828282",
".p c #8b8b8b",
".q c #a3a3a3",
".r c #838383",
".s c #8e8e8e",
".t c #a2a2a2",
".u c #7d7d7d",
".v c #7b7b7b",
".w c #797979",
".x c #767676",
".y c #757575",
".z c #757575",
".A c #777777",
".B c #727272",
".C c #6f6f6f",
".D c #6a6a6a",
".E c #636363",
".F c #6b6b6b",
".G c #8a8a8a",
".H c #8e8e8e",
".I c #676767",
".J c #6e6e6e",
".K c #7a7a7a",
".L c #626262",
".M c #7e7e7e",
".N c #8d8d8d",
".O c #565656",
".P c #505050",
".Q c #4d4d4d",
".R c #494949",
".S c #434343",
".T c #404040",
".U c #575757",
".V c #393939",
".W c #3d3d3d",
".X c #3f3f3f",
".Y c #4f4f4f",
".Z c #585858",
".0 c #5b5b5b",
".1 c #5a5a5a",
".2 c #858585",
".3 c #5e5e5e",
".4 c #4b4b4b",
".5 c #7b7b7b",
".6 c #3a3a3a",
".7 c #636363",
".8 c #444444",
".9 c #3c3c3c",
"#. c #353535",
"## c #515151",
"#a c #323232",
"#b c #6c6c6c",
"#c c #6a6a6a",
"#d c #6f6f6f",
"#e c #2a2a2a",
"#f c #666666",
"#g c #838383",
"#h c #2d2d2d",
"#i c #737373",
"#j c #8f8f8f",
"#k c #6c6c6c",
"#l c #a3a3a3",
"#m c #9f9f9f",
"#n c Gray60",
"#o c #969696",
"#p c #b0b0b0",
"#q c #ababab",
"#r c #9e9e9e",
"#s c #9a9a9a",
"#t c #8a8a8a",
"#u c Gray60",
"#v c #a7a7a7",
/* pixels */
"...#.#.......a.a.#.....b.b.c.d.d.d.e.d.e.e.e.e.e.e.f.g.g.h.h.e.f.h.i.h.h.f.h.h.f.h.j.j.f.h.f.j.f.h.j.h.j.h.g.e.e.e.d.d.k.c.l.b.m",
".b.n...........o...p.b.b.b.b.c.d.d.e.c.d.e.e.e.d.g.e.e.e.g.l.g.e.e.g.g.e.g.q.f.h.h.h.g.h.h.h.j.i.h.h.h.h.e.e.e.e.l.e.c.d.e.c.m.c",
".r.r...#...........b.b.b.s.b.m.d.d.c.l.e.d.l.e.d.e.m.d.l.d.e.e.e.e.e.e.e.e.d.g.d.e.e.e.h.g.f.h.h.h.h.f.h.g.t.e.e.d.e.d.c.c.d.c.c",
".#.o.a.#.#.#...#.......p...b.b.b.m.k.d.b.d.d.m.b.b.d.d.b.b.b.m.k.d.d.d.d.d.b.m.k.d.d.d.d.g.g.g.e.e.g.e.g.e.e.d.d.d.d.d.b.k.b.b.d",
".s.......#.#.#...#.o.#.....#.....p.....p.......#.a.#.#.......#.............b.b.b...b.b.k.e.c.e.d.e.d.e.d.e.e.d.d.k.c.b.b.m.b.m.d",
".#.#.o.r.a.u.a.u.o.u.u.u.a.#.o.u.u.r.u.u.u.v.u.w.w.x.u.u.u.u.u.u.a.#.o.#.o.............s.s.b.k.k.k.b.k.b.m.b.b.s.......s...b.s.b",
"...a.u.u.w.u.u.y.w.z.z.u.u.u.z.u.w.z.y.z.z.u.z.z.z.z.z.y.u.w.u.z.#.a.u.#.a.#.#.#...#.....#...........p.b.b...#.o.o.a.o.o.#.s.s.s",
".a.w.z.u.w.z.w.w.w.z.A.u.z.z.z.B.z.z.A.z.A.z.A.y.z.C.A.z.z.y.w.w.w.a.o.a.#.#.o.a.o...o...#...#.#.#.#.r.#.#...o.a.a.o.u.a.o.o.#..",
".#.o.u.z.z.z.z.B.B.z.y.B.z.B.B.B.B.B.B.B.B.B.B.B.C.B.B.w.w.w.w.x.u.w.u.u.o...a...#.....#.#...n.#.#.#.n...#.#.o.#.#.....#.o.r.#.#",
".w.a.w.w.B.B.B.z.B.B.z.B.B.D.C.B.C.B.B.C.D.C.E.C.C.F.z.B.B.B.w.B.u.u.u.u.u.#.#.#.....G.......H...#.#.#.........#.....H..........",
".w.x.z.z.B.B.z.C.z.B.B.B.C.C.D.C.E.I.C.E.E.D.D.C.B.F.B.B.F.z.w.w.w.u.#.v.o.a...........G...G...b.s.H.s.H.....G.s.H...G.b.s......",
".w.x.z.B.B.z.A.z.B.B.B.F.C.B.F.E.C.E.E.C.E.F.E.B.J.B.B.B.w.w.w.w.w.o.u.#.o.#.#...n.#.....s...p.s.b...b.b...G.b...G.b...p.b...G..",
".w.w.w.x.B.#.B.w.B.F.B.B.F.D.B.D.B.D.D.I.F.E.C.D.B.B.F.z.z.z.B.w.z.w.o.K.u.#.o.w.o.n...#.G.....H.b...s.G.b.b.s.H.p.b.b.s...G...#",
".u.w.w.w.w.w.w.K.u.z.B.B.B.F.B.B.C.D.C.E.F.L.E.L.L.I.E.F.C.C.B.F.B.C.C.z.z.u.M.w.a.o.a.#.....H...s.G.b.b.N...b.....p...s.G.N...#",
".a.w.a.w.a.o.a.u.y.w.B.B.B.B.C.E.L.O.P.P.Q.R.S.S.T.Q.R.R.R.P.P.U.O.L.L.L.E.B.F.B.B.x.w.M.w.#.o.o.#.#.......s.....s.s.G...s......",
".#...o...o.r.a.#.u.u.B.C.F.E.P.U.R.V.P.R.V.W.T.V.V.X.S.S.T.Q.R.P.Y.Z.0.1.Z.1.L.1.E.L.B.B.B.x.w.w.o.2...#...G...#.n.s...G.....#..",
".....#...#.o.r.a.w.w.B.F.3.P.Z.4.R.R.Q.V.S.S.T.W.V.S.V.S.V.S.S.W.R.P.Z.U.L.0.0.L.0.U.L.E.F.C.z.w.a.5.#.#.o.#...#...n.o.#...o....",
".........#.o.a.o.x.x.C.O.Z.U.R.Y.R.R.R.W.W.S.S.W.W.V.6.6.W.S.W.W.R.S.W.R.S.R.P.Z.L.L.L.0.0.0.7.F.B.x.w.w.K.o.o.o.o...n.....n....",
".s.H.......o.a.w.x.F.U.Z.U.Y.P.R.Y.R.S.S.8.R.6.S.S.6.S.W.6.9.9.9.9#..9#..6.S.R.Y.U.Z.P##.L.L.0.L.0.F.F.B.x.x.M.o.5...n.n.o...G..",
".b.s.H...#.n.K.x.F.1.L.L.P.P.4.Y.R.8.Z.Y.L.Z.V.W.R.S.W#..9#.#..6.S.8.8.W.6.W.R.R.R.R.R.Z.L.L.F.L.L.U.0.F.F.M.w.M.o.n.2...o......",
".s.s...n.#.o.w.F.L.L.L.1.L.L.U.Z.Z.Z.Z.5.7.R.S.S.R.S.9#a.9#.#.#b#b#c.Z.R.W.S.S.Y.R.Y.R.Y.Y.U.7.L.L.F.L.E.F.F.M.M.w.M.o.n.....G.s",
".s.G.....o.K.M.1.F.F.E.F.L.L.Z#d.o.K.n.n.7.Z.Z.Y.S.W#a#e#a#e.6#d#d.5#b.R.8.S.Y#d.Z.R.R.R.8.Z.Z.U.7.F.B#d.C.B.x.A.#.o.a...G.H.b.k",
".s.N.G...o.5.B.F.C.C.3.F.F#f#d.n.K.o.n#g#c.Z.Z.Z.S.6#.#e#h#..8#d.5#g.5.Z.8.Y.U.5.5#c.Y.Y.Y.R.Y.L.L.F.F.B.x.F.A.x.5..#g.....b.k.k",
".H.s...n.o.w.C.F.B.C.C.F#f.M.o#g.n.n.H.G.5#d.U.Y.Y.6#.#a#.#..6#d#b.5#d.Z.Y.Z.7#g.n.5#d.Z.R.Y.Y.P.L.7.F.F.B.o.K.#.o.n...G.H.b.H.d",
".s.H.....#.w.B.B#i.F#d.B.o.n.n.H.H.n.H#j.5.Z.Z.Z.L.U.Z.Y.6#..W.7#d.7#d.Z.7.7#d.H#j.H.G.5.Z.U.4.Z.Z.L.L#k.A.w.5.o.....G.m.b.k.b.k",
".s.H...n.#.w.w.x.B.z.B.5.5.n#g.n.n.H#j.H#g#c.L.L#d#d#d.7.Y.R.W.Y.7#d.7.Y.Z#c.n#l#m.G#m.H.A.7.F.L.0.L.C.A.B.F.o.....G.b.H.k.d.d.g",
".k.H.....n.#.o.w#n#n#n#n#n.n.n.n.H#m.k#o.H.5#c#c#b#b#c#d#d#d#d.7#b#b#d#c#d#d#p#q#l#n#n.5.A.x.M.M.A.A#d.F#d.#.N.G.b.k.k.k.d.g.k.g",
".b.H.G...n.#.o.5#n#n.B.x#n#n.n.H.k#r.k.t.t.H#d#c#b#b#d#d#c.5#d#d#d#d#d#b#d#l#p.t#q#n#n.M.M.M.M.M.M.o.G.H.G.H.b.k.k.k.d.g#s.d.g#m",
".H.k.H.H...o.n#n#n.B.B.B#n#n.n.G#n#n#n#n.t#m#g#n#n#n#n#d#d#d#n#n#n#n#d#d#r#n#n#l#n#n.5.5#n#n#n#n.M.5.n.b.k.k.k.k.g.b#m.b.g.g.g.k",
".d#m.b.k.#.o.o#n#n.x.B.B#n#n.n#n#n.k#l#n#n#p#n#n#d#d#n#n#d#n#n#d#b#n#n.k#n#n#q#n#n#n.n#n#n.M.M#n.o.n.s.G.b.k.g.k.b#m.k.g.g#r.g.k",
".b.k.b.k...o#n#n.o.w.B.B#n#n#n#n.G.k#r#n#n#n#n#r.5.5#b#d#n#n#b#d#d#n#n#n#n#p#r.H#n#n#n#n.M.A#g#n.o.n.H.H.d#m.d.g.g.g.g.g.e.g.g.g",
".k.d.g.k.H.o#n#n.w.B.w#n#n.M#n#n#n#n#n#n#r#n#n#l.t#m.H#g#n#n.5.H#n#n#p#n#n#m.G#n#n#t#n#n#n#n#n#n.H.k.H.k.d.g#m.g.g.g.g.g.h.g.g.g",
".g.e.d.d.H.o#n#n.x.w.w#n#n#n#n.o#g.n.o#g#n#n.s#m#r#n#n#n#n#m#m#u#u#n#n#n#m.G#u#u#n#u#u.n#u#u.n.n.H.H.k#u#u.e#u#u#u#u#u.g.h.h.f.h",
".e.k.g.k.b#n#n.M.M.M#n#n.5#n#n.a.o#n#n.n#n#n.G.H#n#n.s#n#n.H.H#u#u#u#n#n.N#u#u#u#j#u#u.N#u#u#u.H.H.b#u#u#u.g#u#u.h.h.g#q.h#q.h.h",
".e#m.d.d.b#n#n#n#n#n#n.o.w.M#n#n#n#n.w.5.##n#n#n#n.H.H.G#n#n#n#u#u#u.G#n#n#u#u#u.H#u#u#n#u#u#u.k.k.H#u#u#u.g#u#u.g.h.h.h.h.i.h.g",
".d.g.g.k.d.k.p.s...#...n.5.5.#.5.M.A.M.#.5.o...5.n.G...n#g.G#g#u#u#u#u.n#u#u#u#u.k#u#u.b#u#u#u#u.g#u#u#u#u.h#u#u#u#u#u.h#v.f.f#q",
".g.g.g.g.d.d.b.G.H...G.....n.o.o.A.o.s.M.#.n.5.o.o.n.o#g.x.n.n#u#u.b#u.G#u.k#u#u.H#u#u.g#u#u.g#u.g#u.h#u#u.i#u#u.i.g.i.f.i.g.h.i",
".g.t.g.g.d.e.k.b.H.H.G.H.G.....5.o.n.o.5...5.G.o.n.....G.M.G..#u#u.d#u#u#u#m#u#u.k#u#u.g#u#u.g#u#u#u.h#u#u.h#u#u.h#q.f#q.h.i.h.j",
".t.h.h.g.g#r.d.d.H.s.H.b.H.H.G.G.......n.G...G.n.G.H.H.H.n.H.H#u#u.g#m#u.g#m#u#u#r#u#u#r#u#u.h#q#u#q.h#u#u.i#u#u#q.h#q.h.i#q.i.h",
".g.t.h.g.g.g.k.d.k.b.H.b.H.k.b.H.G.s.n.H.G.H.H.s.H.k.d.k.s.H.H#u#u#m#m#u#s#m#u#u#m#u#u#m#u#u#q.g#u.g#q#u#u.i#u#u#u#u#u#q.h.i.h#q",
".h.h#v.h.g.g.g#m.d.d.k.d.k.k.k.d.H.k.G.s.H.b.b.k.b.d.b.H.e#m.H.k.g#m#m.g#r.g.g#q.g.h#q.h#q.g#q.h#q#q.h.i.i.h.i.i.i.i.h.i.h.i.h.f",
".g.g.h.f.h.g.g.e.d.g.b.k.d.k.b.k.k.k.d.b.b.k.k.k.d.d.d.g.k.g.k.g#r.g.g.g.t.g.h#q#m.h#v#q.h#q.h#q#q#q.i#q.i.h.h#q.h.i.h.i.h.f.i.h"
};
