/* XPM */
static char *noname[] = {
/* width height ncolors chars_per_pixel */
"24 30 86 2",
/* colors */
"`` c #B88D37",
"`a c #200505",
"`b c #F49B12",
"`c c #704B25",
"`d c #B65D0A",
"`e c #4D2713",
"`f c #FFAC19",
"`g c #64300F",
"`h c #321B0C",
"`i c #582E03",
"`j c #C07920",
"`k c #874F09",
"`l c #593514",
"`m c #A07C21",
"`n c #DE7F1C",
"`o c #481103",
"`p c #542D15",
"`q c #58220F",
"`r c #D1AC4A",
"`s c #DFA644",
"`t c #EC9708",
"`u c #501A07",
"`v c #3D1608",
"`w c #90602B",
"`x c #350000",
"`y c #A77B13",
"`z c #A04E13",
"a` c #AC7E39",
"aa c #997319",
"ab c #DA9C1A",
"ac c #8B6F1F",
"ad c #280C0A",
"ae c #98460B",
"af c #AF5707",
"ag c #631C0F",
"ah c #764F35",
"ai c #E6B339",
"aj c #804500",
"ak c #DEAB31",
"al c #802B00",
"am c #C06B21",
"an c #91732E",
"ao c #643C19",
"ap c #A54F03",
"aq c #A78A40",
"ar c #7E5C25",
"as c #793313",
"at c #804F1D",
"au c #AD913F",
"av c #85681B",
"aw c #CB6E00",
"ax c #30120D",
"ay c #B89846",
"az c #8C3904",
"b` c #B96219",
"ba c #FABB1D",
"bb c #A68527",
"bc c #85652B",
"bd c #F2B315",
"be c #FFC125",
"bf c #7D430C",
"bg c #C86B0D",
"bh c #EAAB0D",
"bi c #420907",
"bj c #9D5828",
"bk c #D68000",
"bl c #813A1D",
"bm c #F7A413",
"bn c #9C6E2A",
"bo c #A1833C",
"bp c #75551E",
"bq c #BF6307",
"br c #997B34",
"bs c #D27213",
"bt c #431F0E",
"bu c #712A0D",
"bv c #74411D",
"bw c #CAA239",
"bx c #C0982F",
"by c #A7551A",
"bz c #E98912",
"c` c #E1810A",
"ca c #501321",
"cb c #DB7B04",
"cc c #EF911E",
"cd c #390C00",
/* pixels */
"acananacbcanbrananacbracbpararacanacananananbrbr",
"avananacacacacanbnbp`pbtaxad`hbtaobcananbrbrbobr",
"anbranaaanananar`vad`x`a`a`a`a`a`aad`eavbrbobobr",
"br`mbbbbbbbrbpadadbibi`aad`a`a`a`a`a`aaxbcbobobo",
"bbbbbbbbaqbnad`a`x`ucd`x`a`a`a`a`aadad`a`hanauaq",
"bbbbaq``aq`v`uae`jc``nbsae`qad`a`a`aad`a`a`eaqaq",
"bb``bxayat`vafab`fbabd`bbzapagbi`a`a`aad`a`aarau",
"````ay``btbubzbdbebababa`bbsajcdad`a`a`a`a`a`hau",
"ayayay`wadaeab`fbdbdbdbd`tawaeagbi`aad`a`a`a`aac",
"bwbx```qbiae`tbmbh`fbh`fc`bs`dae`gbi`a`a`a`a`a`p",
"`s`rbjbi`hbqc`bmbmbh`fbm`bc``nbqaecdadadad`a`a`h",
"aiakbvadbibsbzc``tbm`tbqaf`dbqaebuadad`xadad`aax",
"bw```qbibiasazasafc`azbiblal`obicd`x`aad`xadad`a",
"a`br`uadbibtbl`uasbzagalafca`uas`z`uadadad`aadad",
"bcbo`vbi`hbsbsbyawccalbybs`d`dbkbg`u`xadadadadad",
"`ebv`vad`uc`bhbmc`bzafbsbhbabmcbap`uad`xadadadad",
"`v`e`vbibibgbmbmbzbm`dbs`tbm`tbqbl`xad`xad`x`xbi",
"`v`vbiadadaf`t`tc`bzaf`dcc`tbsae`q`xbiadbiadadad",
"bi`h`x`vbibubsc`bq`z`vbu`tcbafbu`uadadbiadbiadbi",
"`vbibiad`h`uapbqbzas`qaeafafaebu`ubiadadadbiadad",
"`h`hbibibi`haeapbyae`q`uazbqapbu`vadadcdaxadbiax",
"btbtad`hbiadagbqc`afbfbfapbybf`ucdad`xaxbiadadbi",
"`ibtbibiadbiad`qbsbm`n`daeas`u`vcd`xadbiad`hbiad",
"ao`e`hbiaxadadadasc`bk`z`q`u`vbibiaxadadbiadadbi",
"ar`c`v`hbiadbi`aad`u`u`vcdbiadadbibiadbiadadbiad",
"bparbt`x`hbiad`aadadbibiad`xbiadbi`h`xadadadadad",
"bp`c`eaxbiadbi`aadadas`g`v`hbibt`v`q`v`xadadbiad",
"ar`c`lbiaxbiadadad`abu`daj`q`u`ubuaj`qbiadadadad",
"ahaobtax`hbiaxadadad`u`dae`kbfbfaeaebf`vbiad`vcd",
"ax`h`hbiadadbiadbi`q`d`yb``d`d`ybgam`d`gbi`hcd`v"
};
