/* XPM */
static char *noname[] = {
/* width height ncolors chars_per_pixel */
"24 30 8 1",
/* colors */
"` c #F49B12",
"a c #64300F",
"b c #280C0A",
"c c #B89846",
"d c #8C3904",
"e c #FFC125",
"f c #9D5828",
"g c #D68000",
/* pixels */
"ffffffffffffffffffffffff",
"ffffffffffabbbbbafffffcf",
"ffffffffbbbbbbbbbbaffccf",
"ffcccffbbbbbbbbbbbbbfccc",
"cccccfbbbabbbbbbbbbbbfcc",
"cccccbadggggdabbbbbbbacc",
"ccccfbf``e```dabbbbbbbfc",
"ccccba``eeee`gdbbbbbbbbc",
"cccfbd```````gdabbbbbbbf",
"cccabd``````ggfdabbbbbba",
"ccfbbgg``````gggdbbbbbbb",
"e`abbg`g```gffgdabbbbbbb",
"ccabbadafgdbddbbbbbbbbbb",
"cfabbbdaa`adfaaafabbbbbb",
"fcbbbggfg`dfgffggabbbbbb",
"aabbag``g`fg`e`gdabbbbbb",
"babbbg````fg```gdbbbbbbb",
"bbbbbf``g`ff``gdabbbbbbb",
"bbbbbagggfba`gfaabbbbbbb",
"bbbbbadg`aadffdaabbbbbbb",
"bbbbbbddfdaadgdabbbbbbbb",
"bbbbbbaggfdddfdabbbbbbbb",
"abbbbbbag`gfdaabbbbbbbbb",
"aabbbbbbaggfaabbbbbbbbbb",
"fabbbbbbbaabbbbbbbbbbbbb",
"ffbbbbbbbbbbbbbbbbbbbbbb",
"faabbbbbbbaabbbbbabbbbbb",
"faabbbbbbbafdaaaadabbbbb",
"fabbbbbbbbafdddddddbbbbb",
"bbbbbbbbbaffffffgffabbbb"
};
