#define noname_width 64
#define noname_height 42
static char noname_bits[] = {
 0x00,0x00,0x00,0x00,0x00,0x00,0x00,0x00,0x00,0x00,0x00,0x00,0x00,0x00,0x00,
 0x00,0x00,0x00,0x00,0x00,0x00,0x00,0x00,0x00,0x00,0x00,0x00,0x00,0x00,0x00,
 0x00,0x00,0x00,0x00,0x00,0x00,0x00,0x00,0x00,0x00,0x00,0x00,0x00,0x00,0x00,
 0x00,0x00,0x00,0x00,0x00,0x00,0x00,0x00,0x00,0x00,0x00,0x00,0x00,0x00,0x00,
 0x00,0x00,0x00,0x00,0x00,0x00,0x00,0x00,0x10,0x00,0x00,0x00,0x00,0x00,0x00,
 0x00,0x30,0x00,0x00,0x00,0x00,0x00,0x00,0x00,0x50,0x00,0x00,0x00,0x00,0x00,
 0xe0,0xff,0x9f,0x00,0x00,0x00,0x00,0x00,0x20,0x00,0x40,0x01,0x00,0x00,0x00,
 0x00,0xa0,0xff,0xff,0x02,0x00,0x00,0x00,0x00,0xa0,0xff,0xff,0x07,0x00,0x00,
 0x00,0x00,0xa0,0xff,0xff,0x03,0x00,0x00,0x00,0x00,0xe0,0xff,0xff,0x01,0x00,
 0x00,0x00,0x00,0xe0,0xff,0xff,0x00,0x00,0x00,0x00,0x00,0x00,0x00,0x70,0x00,
 0x00,0x00,0x00,0x00,0x00,0x00,0x30,0x00,0x00,0x00,0x00,0x00,0x00,0x00,0x10,
 0x00,0x00,0x00,0x00,0x00,0x00,0x00,0x00,0x00,0x00,0x00,0x00,0x00,0x00,0x00,
 0x00,0x00,0x00,0x00,0x00,0x00,0x00,0x00,0x00,0x00,0x00,0x00,0x00,0x00,0x00,
 0x00,0x00,0x00,0x00,0x00,0x00,0x00,0x8c,0x01,0x00,0x06,0x00,0x00,0x00,0x00,
 0x9c,0x01,0x00,0x06,0x00,0x00,0x00,0x00,0x9c,0x79,0x66,0x0f,0x00,0x00,0x00,
 0x00,0xac,0xcd,0x66,0x06,0x00,0x00,0x00,0x00,0xac,0xcd,0x3c,0x06,0x00,0x00,
 0x00,0x00,0xcc,0xfd,0x18,0x06,0x00,0x00,0x00,0x00,0xcc,0x0d,0x3c,0x06,0x00,
 0x00,0x00,0x00,0x8c,0xcd,0x66,0x16,0x00,0x00,0x00,0x00,0x8c,0x79,0x66,0x0c,
 0x00,0x00,0x00,0x00,0x00,0x00,0x00,0x00,0x00,0x00,0x00,0x00,0x00,0x00,0x00,
 0x00,0x00,0x00,0x00,0x00,0x00,0x00,0x00,0x00,0x00,0x00,0x00,0x00,0x00,0x00,
 0x00,0x00,0x00,0x00,0x00,0x00,0x00,0x00,0x00,0x00,0x00,0x00,0x00,0x00,0x00,
 0x00,0x00,0x00,0x00,0x00,0x00,0x00,0x00,0x00,0x00,0x00,0x00,0x00,0x00,0x00,
 0x00,0x00,0x00,0x00,0x00,0x00};
