#define noname_width 64
#define noname_height 42
static char noname_bits[] = {
 0x00,0x00,0x00,0x00,0x00,0x00,0x00,0x00,0x00,0x00,0x00,0x00,0x00,0x00,0x00,
 0x00,0x00,0x00,0x00,0x00,0x00,0x00,0x00,0x00,0x00,0x00,0x00,0x00,0x00,0x00,
 0x00,0x00,0x00,0x00,0x00,0x00,0x00,0x00,0x00,0x00,0x00,0x00,0x00,0x00,0x00,
 0x00,0x00,0x00,0x00,0x00,0x00,0x00,0x00,0x00,0x00,0x00,0x00,0x00,0x00,0x00,
 0x00,0x00,0x00,0x00,0x00,0x00,0x00,0x08,0x00,0x00,0x00,0x00,0x00,0x00,0x00,
 0x0c,0x00,0x00,0x00,0x00,0x00,0x00,0x00,0x0a,0x00,0x00,0x00,0x00,0x00,0x00,
 0x00,0xf9,0xff,0x07,0x00,0x00,0x00,0x00,0x80,0x02,0x00,0x04,0x00,0x00,0x00,
 0x00,0x40,0xff,0xff,0x05,0x00,0x00,0x00,0x00,0xe0,0xff,0xff,0x05,0x00,0x00,
 0x00,0x00,0xc0,0xff,0xff,0x05,0x00,0x00,0x00,0x00,0x80,0xff,0xff,0x07,0x00,
 0x00,0x00,0x00,0x00,0xff,0xff,0x07,0x00,0x00,0x00,0x00,0x00,0x0e,0x00,0x00,
 0x00,0x00,0x00,0x00,0x00,0x0c,0x00,0x00,0x00,0x00,0x00,0x00,0x00,0x08,0x00,
 0x00,0x00,0x00,0x00,0x00,0x00,0x00,0x00,0x00,0x00,0x00,0x00,0x00,0x00,0x00,
 0x00,0x00,0x00,0x00,0x00,0x00,0x00,0x00,0x00,0x00,0x00,0x00,0x00,0x00,0x00,
 0x00,0x00,0x00,0x00,0x00,0xc0,0x0f,0x00,0x00,0x06,0x00,0x00,0x00,0xc0,0x18,
 0x00,0x00,0x00,0x00,0x00,0x00,0xc0,0x78,0x7b,0xc6,0xe6,0x99,0x79,0x00,0xc0,
 0xf8,0xcf,0xc6,0x36,0x9b,0xcd,0x00,0xc0,0xef,0xcc,0x6c,0x36,0x9b,0x1d,0x00,
 0xc0,0x60,0xfc,0x6c,0x36,0x9b,0x71,0x00,0xc0,0x60,0x0c,0x38,0x36,0x9b,0xe1,
 0x00,0xc0,0x60,0xcc,0x38,0x36,0xdb,0xcd,0x00,0xc0,0x60,0x78,0x10,0xe6,0xb1,
 0x79,0x00,0x00,0x00,0x00,0x00,0x00,0x00,0x00,0x00,0x00,0x00,0x00,0x00,0x00,
 0x00,0x00,0x00,0x00,0x00,0x00,0x00,0x00,0x00,0x00,0x00,0x00,0x00,0x00,0x00,
 0x00,0x00,0x00,0x00,0x00,0x00,0x00,0x00,0x00,0x00,0x00,0x00,0x00,0x00,0x00,
 0x00,0x00,0x00,0x00,0x00,0x00,0x00,0x00,0x00,0x00,0x00,0x00,0x00,0x00,0x00,
 0x00,0x00,0x00,0x00,0x00,0x00};
