#define noname_width 64
#define noname_height 42
static char noname_bits[] = {
 0x00,0x00,0x00,0x00,0x00,0x00,0x00,0x00,0x00,0x00,0x00,0x00,0x00,0x00,0x00,
 0x00,0x00,0x00,0x00,0x00,0x00,0x00,0x00,0x00,0x00,0x00,0x00,0x00,0x00,0x00,
 0x00,0x00,0x00,0x00,0x00,0xff,0x01,0x00,0x00,0x00,0x00,0x00,0x00,0x01,0x03,
 0x00,0x00,0x00,0x00,0x00,0x00,0x3d,0x05,0x00,0x00,0x00,0x00,0x00,0x00,0x01,
 0x7f,0x00,0x00,0x00,0x00,0x00,0x00,0x1d,0xa8,0x01,0x00,0x00,0x00,0x00,0x00,
 0x01,0x18,0x02,0x00,0x00,0x00,0x00,0x00,0xff,0x0f,0x03,0x00,0x00,0x00,0x00,
 0x80,0x00,0x88,0x02,0x00,0x00,0x00,0x00,0x40,0x00,0x50,0x02,0x00,0x00,0x00,
 0x00,0xe0,0xff,0x3f,0x02,0x00,0x00,0x00,0x00,0x20,0x00,0x20,0x02,0x00,0x00,
 0x00,0x00,0x20,0x00,0x20,0x03,0x00,0x00,0x00,0x00,0x20,0x00,0xa0,0x01,0x00,
 0x00,0x00,0x00,0x20,0x00,0x60,0x01,0x00,0x00,0x00,0x00,0xe0,0xff,0xbf,0x00,
 0x00,0x00,0x00,0x00,0x40,0x00,0x50,0x00,0x00,0x00,0x00,0x00,0x80,0x00,0x28,
 0x00,0x00,0x00,0x00,0x00,0x80,0x00,0x18,0x00,0x00,0x00,0x00,0x00,0x00,0xff,
 0x0f,0x00,0x00,0x00,0x00,0x00,0x00,0x00,0x00,0x00,0x00,0x00,0x00,0x00,0x00,
 0x00,0x00,0x00,0x00,0x00,0x00,0x00,0xfc,0xc0,0x00,0x06,0x00,0x00,0x00,0x00,
 0x8c,0x01,0x00,0x06,0x00,0x00,0x00,0x00,0x8c,0xf7,0x36,0x0f,0x00,0x00,0x00,
 0x00,0x8c,0xff,0x6e,0x06,0x00,0x00,0x00,0x00,0xfc,0xce,0x66,0x06,0x00,0x00,
 0x00,0x00,0x0c,0xc6,0x66,0x06,0x00,0x00,0x00,0x00,0x0c,0xc6,0x66,0x06,0x00,
 0x00,0x00,0x00,0x0c,0xc6,0x66,0x16,0x00,0x00,0x00,0x00,0x0c,0xc6,0x66,0x0c,
 0x00,0x00,0x00,0x00,0x00,0x00,0x00,0x00,0x00,0x00,0x00,0x00,0x00,0x00,0x00,
 0x00,0x00,0x00,0x00,0x00,0x00,0x00,0x00,0x00,0x00,0x00,0x00,0x00,0x00,0x00,
 0x00,0x00,0x00,0x00,0x00,0x00,0x00,0x00,0x00,0x00,0x00,0x00,0x00,0x00,0x00,
 0x00,0x00,0x00,0x00,0x00,0x00,0x00,0x00,0x00,0x00,0x00,0x00,0x00,0x00,0x00,
 0x00,0x00,0x00,0x00,0x00,0x00};
