#define noname_width 64
#define noname_height 42
static char noname_bits[] = {
 0x00,0x00,0x00,0x00,0x00,0x00,0x00,0x00,0x00,0x00,0x00,0x00,0x00,0x00,0x00,
 0x00,0x00,0x00,0x00,0x00,0x00,0x00,0x00,0x00,0x00,0x00,0x00,0x00,0x00,0x00,
 0x00,0x00,0x00,0x00,0x00,0x00,0x00,0x00,0x00,0x00,0x00,0x00,0x00,0x00,0x00,
 0x00,0x00,0x00,0x00,0x00,0x00,0x00,0x00,0x00,0x00,0x00,0x00,0x00,0x00,0x00,
 0x00,0x00,0x00,0x00,0x00,0x00,0x00,0x00,0x00,0x00,0x00,0x00,0x00,0x00,0x00,
 0x00,0x00,0x00,0x00,0x00,0x00,0x00,0x00,0x00,0x00,0x00,0x00,0x00,0x00,0x00,
 0x00,0x00,0x00,0x00,0x00,0x00,0x00,0x00,0x21,0x00,0x00,0x10,0x00,0x00,0x00,
 0x00,0x4f,0x00,0x00,0x18,0x04,0x00,0x00,0xe0,0x03,0x03,0x00,0x1d,0x06,0x00,
 0x00,0xc0,0x01,0x02,0x00,0x1e,0x06,0x00,0x00,0xe0,0x20,0x02,0x20,0x00,0x02,
 0x00,0x00,0x60,0x80,0x86,0x82,0xb0,0x1c,0x00,0x00,0x68,0x00,0xd6,0x68,0x1a,
 0x0e,0x00,0x00,0x60,0x00,0xc6,0x60,0x18,0x06,0x00,0x00,0x40,0x00,0xc6,0x60,
 0x18,0x06,0x00,0x00,0x04,0x09,0xc7,0x60,0x18,0x06,0x00,0x00,0xd0,0x03,0xc7,
 0x60,0x18,0x06,0x00,0x00,0x80,0xa0,0x83,0x60,0x18,0x26,0x00,0x00,0x60,0xe2,
 0x13,0x48,0x90,0x30,0x00,0x00,0xc0,0xe3,0xe1,0x77,0x3e,0x3f,0x00,0x00,0x80,
 0x27,0xc0,0xff,0x1f,0x0e,0x00,0x00,0x00,0x00,0x02,0x00,0x00,0x00,0x00,0x00,
 0x00,0x90,0x03,0x00,0x00,0x00,0x00,0x00,0x00,0xe0,0x03,0x00,0x00,0x00,0x00,
 0x00,0x00,0xc0,0x00,0x00,0x00,0x00,0x00,0x00,0x00,0x00,0x00,0x00,0x00,0x00,
 0x00,0x00,0x00,0x00,0x00,0x00,0x00,0x00,0x00,0x00,0x00,0x00,0x00,0x00,0x00,
 0x00,0x00,0x00,0x00,0x00,0x00,0x00,0x00,0x00,0x00,0x00,0x00,0x00,0x00,0x00,
 0x00,0x00,0x00,0x00,0x00,0x00,0x00,0x00,0x00,0x00,0x00,0x00,0x00,0x00,0x00,
 0x00,0x00,0x00,0x00,0x00,0x00,0x00,0x00,0x00,0x00,0x00,0x00,0x00,0x00,0x00,
 0x00,0x00,0x00,0x00,0x00,0x00,0x00,0x00,0x00,0x00,0x00,0x00,0x00,0x00,0x00,
 0x00,0x00,0x00,0x00,0x00,0x00};
