/* XPM */
static char * quit-up_xpm[] = {
"64 42 10 1",
"X	c Gray75 s backgroundToolBarColor",
"x	c Gray75",
".	c #BEBEBEBEBEBE",
"G	c #DEDEDEDEDEDE",
"o	c #9E9E9E9E9E9E",
"O	c #FEFEFEFEFEFE",
"+	c #606060606060",
"@	c #000000000000",
"#	c #202020202020",
"$	c #404040404040",
"XXXXXXXXXXXXXXXXXXXXXXXXXXXXXXXXXXXXXXXXXXXXXXXXXXXXXXXXXXXXXXXX",
"XXXXXXXXXXXXXXXXXXXXXXXXXXXXXXXXXXXXXXXXXXXXXXXXXXXXXXXXXXXXXXXX",
"XXXXXXXXXXXXXXXXXXXXXXXXXXXXXXXXXXXXXXXXXXXXXXXXXXXXXXXXXXXXXXXX",
"XXXXXXXXXXXXXXXXXXXXXXXXXXXXXXXXXXXXXXXXXXXXXXXXXXXXXXXXXXXXXXXX",
"XXXXXXXXXXXXXXXXXXXXXXXXXXXXXXXXXXXXXXXXXXXXXXXXXXXXXXXXXXXXXXXX",
"XXXXXXXXXXXXXXXXXXXXXXXXXXXXXXXXXXXXXXXXXXXXXXXXXXXXXXXXXXXXXXXX",
"XXXXXXXXXXXXXXXXXXXXXXXXXXXXXXXXXXXXXXXXXXXXXXXXXXXXXXXXXXXXXXXX",
"XXXXXXXXXXXXXXXXXXXXXXXXXXXXXXXXXXXXXXXXXXXXXXXXXXXXXXXXXXXXXXXX",
"XXXXXXXXXXXXXXXXXXXXXXXXXXXXXXXXXXXXXXXXXXXXXXXXXXXXXXXXXXXXXXXX",
"XXXXXXXXXXXXXXXXXXXXXXXXXXXXXXXXXXXXXXXXXXXXXXXXXXXXXXXXXXXXXXXX",
"XXXXXXXXXXXXXXXXXXXXXXXXXXXXXXXXXXXXXXXXXXXXXXXXXXXXXXXXXXXXXXXX",
"XXXXXXXXXXXXXX.GGGGGGoXXXXXXXXXXXXXXXXXX.GGoXXXXXXXXXXXXXXXXXXXX",
"XXXXXXXXXXXX.GOOoxx.G..oXXXXXXXXXXXXXXXXGOGx+XXX.oXXXXXXXXXXXXXX",
"XXXXXXXXXXX.OOGx@@#$xxo.XXXXXXXXXXXXXXXXGGx##XX.Oo+XXXXXXXXXXXXX",
"XXXXXXXXXXXGO.$@@$XXXxxx$+XXXXXXXXXXXXXXox#@#XXGO+#XXXXXXXXXXXXX",
"XXXXXXXXXX.OGx#@$XXXX.ox+$XXXXXXXXXXXXXXX+##$X.OG##XXXXXXXXXXXXX",
"XXXXXXXXXXGO.$@#XXXXXo.xx$oGGGoXX.GGGoX.GGGoX.OO.+xoXXXXXXXXXXXX",
"XXXXXXXXXXGGx#@$XXXXXX.ox#$GGGx+XoGGGX+oGGGX+oG.x$$++XXXXXXXXXXX",
"XXXXXXXXXXGGx##XXXXXXXGGx##.ox##XX.ox##X.ox##X.ox#@#$XXXXXXXXXXX",
"XXXXXXXXXXGGx##XXXXXXXGGx##GGx##XXGGx##XGGx##XGGx##XXXXXXXXXXXXX",
"XXXXXXXXXXGGx+$.GGGox.OGx##GGx##XXGGx##XGGx##XGGx##XXXXXXXXXXXXX",
"XXXXXXXXXXo.xxxoo.G.xGO.$@#GGx##XXGGx##XGGx##XGGx##XXXXXXXXXXXXX",
"XXXXXXXXXXX.ox$#$$xxxGGx#@$GGx##XXGGx##XGGx##XGGx##.oXXXXXXXXXXX",
"XXXXXXXXXXXo.x+++X.oxo.$@#XGGx+$X.OGx##XGGx##XGGx##Go+XXXXXXXXXX",
"XXXXXXXXXXXXX$+o..OGx$#@@$Xo.xxx..G.x+$.OGx+$Xo.x+x.+#XXXXXXXXXX",
"XXXXXXXXXXXXX+$$#$xox#@#$XXXX$##$++$###Xo+###+XX$#$+$$XXXXXXXXXX",
"XXXXXXXXXXXXXXX+###xo+$.oXXXX+####$+###$+####$XX+###$XXXXXXXXXXX",
"XXXXXXXXXXXXXXXXXXXGGxxGo+XXXXXXXXXXXXXXXXXXXXXXXXXXXXXXXXXXXXXX",
"XXXXXXXXXXXXXXXXXXXo.xx+$#XXXXXXXXXXXXXXXXXXXXXXXXXXXXXXXXXXXXXX",
"XXXXXXXXXXXXXXXXXXXXX$#@@$XXXXXXXXXXXXXXXXXXXXXXXXXXXXXXXXXXXXXX",
"XXXXXXXXXXXXXXXXXXXXX+##$XXXXXXXXXXXXXXXXXXXXXXXXXXXXXXXXXXXXXXX",
"XXXXXXXXXXXXXXXXXXXXXXXXXXXXXXXXXXXXXXXXXXXXXXXXXXXXXXXXXXXXXXXX",
"XXXXXXXXXXXXXXXXXXXXXXXXXXXXXXXXXXXXXXXXXXXXXXXXXXXXXXXXXXXXXXXX",
"XXXXXXXXXXXXXXXXXXXXXXXXXXXXXXXXXXXXXXXXXXXXXXXXXXXXXXXXXXXXXXXX",
"XXXXXXXXXXXXXXXXXXXXXXXXXXXXXXXXXXXXXXXXXXXXXXXXXXXXXXXXXXXXXXXX",
"XXXXXXXXXXXXXXXXXXXXXXXXXXXXXXXXXXXXXXXXXXXXXXXXXXXXXXXXXXXXXXXX",
"XXXXXXXXXXXXXXXXXXXXXXXXXXXXXXXXXXXXXXXXXXXXXXXXXXXXXXXXXXXXXXXX",
"XXXXXXXXXXXXXXXXXXXXXXXXXXXXXXXXXXXXXXXXXXXXXXXXXXXXXXXXXXXXXXXX",
"XXXXXXXXXXXXXXXXXXXXXXXXXXXXXXXXXXXXXXXXXXXXXXXXXXXXXXXXXXXXXXXX",
"XXXXXXXXXXXXXXXXXXXXXXXXXXXXXXXXXXXXXXXXXXXXXXXXXXXXXXXXXXXXXXXX",
"XXXXXXXXXXXXXXXXXXXXXXXXXXXXXXXXXXXXXXXXXXXXXXXXXXXXXXXXXXXXXXXX",
"XXXXXXXXXXXXXXXXXXXXXXXXXXXXXXXXXXXXXXXXXXXXXXXXXXXXXXXXXXXXXXXX"};
