/* XPM */
static char * quit-up_xpm[] = {
"64 42 9 1",
"X	c Gray75 s backgroundToolBarColor",
".	c Gray60",
"G	c Gray60",
"o	c Gray60",
"O	c Gray60",
"+	c Gray60",
"@	c Gray60",
"#	c Gray60",
"$	c Gray60",
"XXXXXXXXXXXXXXXXXXXXXXXXXXXXXXXXXXXXXXXXXXXXXXXXXXXXXXXXXXXXXXXX",
"XXXXXXXXXXXXXXXXXXXXXXXXXXXXXXXXXXXXXXXXXXXXXXXXXXXXXXXXXXXXXXXX",
"XXXXXXXXXXXXXXXXXXXXXXXXXXXXXXXXXXXXXXXXXXXXXXXXXXXXXXXXXXXXXXXX",
"XXXXXXXXXXXXXXXXXXXXXXXXXXXXXXXXXXXXXXXXXXXXXXXXXXXXXXXXXXXXXXXX",
"XXXXXXXXXXXXXXXXXXXXXXXXXXXXXXXXXXXXXXXXXXXXXXXXXXXXXXXXXXXXXXXX",
"XXXXXXXXXXXXXXXXXXXXXXXXXXXXXXXXXXXXXXXXXXXXXXXXXXXXXXXXXXXXXXXX",
"XXXXXXXXXXXXXXXXXXXXXXXXXXXXXXXXXXXXXXXXXXXXXXXXXXXXXXXXXXXXXXXX",
"XXXXXXXXXXXXXXXXXXXXXXXXXXXXXXXXXXXXXXXXXXXXXXXXXXXXXXXXXXXXXXXX",
"XXXXXXXXXXXXXXXXXXXXXXXXXXXXXXXXXXXXXXXXXXXXXXXXXXXXXXXXXXXXXXXX",
"XXXXXXXXXXXXXXXXXXXXXXXXXXXXXXXXXXXXXXXXXXXXXXXXXXXXXXXXXXXXXXXX",
"XXXXXXXXXXXXXXXXXXXXXXXXXXXXXXXXXXXXXXXXXXXXXXXXXXXXXXXXXXXXXXXX",
"XXXXXXXXXXXXXX.GGGGGGoXXXXXXXXXXXXXXXXXX.GGoXXXXXXXXXXXXXXXXXXXX",
"XXXXXXXXXXXX.GOOoXX.G..oXXXXXXXXXXXXXXXXGOGX+XXX.oXXXXXXXXXXXXXX",
"XXXXXXXXXXX.OOGX@@#$XXo.XXXXXXXXXXXXXXXXGGX##XX.Oo+XXXXXXXXXXXXX",
"XXXXXXXXXXXGO.$@@$XXXXXX$+XXXXXXXXXXXXXXoX#@#XXGO+#XXXXXXXXXXXXX",
"XXXXXXXXXX.OGX#@$XXXX.oX+$XXXXXXXXXXXXXXX+##$X.OG##XXXXXXXXXXXXX",
"XXXXXXXXXXGO.$@#XXXXXo.XX$oGGGoXX.GGGoX.GGGoX.OO.+XoXXXXXXXXXXXX",
"XXXXXXXXXXGGX#@$XXXXXX.oX#$GGGX+XoGGGX+oGGGX+oG.X$$++XXXXXXXXXXX",
"XXXXXXXXXXGGX##XXXXXXXGGX##.oX##XX.oX##X.oX##X.oX#@#$XXXXXXXXXXX",
"XXXXXXXXXXGGX##XXXXXXXGGX##GGX##XXGGX##XGGX##XGGX##XXXXXXXXXXXXX",
"XXXXXXXXXXGGX+$.GGGoX.OGX##GGX##XXGGX##XGGX##XGGX##XXXXXXXXXXXXX",
"XXXXXXXXXXo.XXXoo.G.XGO.$@#GGX##XXGGX##XGGX##XGGX##XXXXXXXXXXXXX",
"XXXXXXXXXXX.oX$#$$XXXGGX#@$GGX##XXGGX##XGGX##XGGX##.oXXXXXXXXXXX",
"XXXXXXXXXXXo.X+++X.oXo.$@#XGGX+$X.OGX##XGGX##XGGX##Go+XXXXXXXXXX",
"XXXXXXXXXXXXX$+o..OGX$#@@$Xo.XXX..G.X+$.OGX+$Xo.X+X.+#XXXXXXXXXX",
"XXXXXXXXXXXXX+$$#$XoX#@#$XXXX$##$++$###Xo+###+XX$#$+$$XXXXXXXXXX",
"XXXXXXXXXXXXXXX+###Xo+$.oXXXX+####$+###$+####$XX+###$XXXXXXXXXXX",
"XXXXXXXXXXXXXXXXXXXGGXXGo+XXXXXXXXXXXXXXXXXXXXXXXXXXXXXXXXXXXXXX",
"XXXXXXXXXXXXXXXXXXXo.XX+$#XXXXXXXXXXXXXXXXXXXXXXXXXXXXXXXXXXXXXX",
"XXXXXXXXXXXXXXXXXXXXX$#@@$XXXXXXXXXXXXXXXXXXXXXXXXXXXXXXXXXXXXXX",
"XXXXXXXXXXXXXXXXXXXXX+##$XXXXXXXXXXXXXXXXXXXXXXXXXXXXXXXXXXXXXXX",
"XXXXXXXXXXXXXXXXXXXXXXXXXXXXXXXXXXXXXXXXXXXXXXXXXXXXXXXXXXXXXXXX",
"XXXXXXXXXXXXXXXXXXXXXXXXXXXXXXXXXXXXXXXXXXXXXXXXXXXXXXXXXXXXXXXX",
"XXXXXXXXXXXXXXXXXXXXXXXXXXXXXXXXXXXXXXXXXXXXXXXXXXXXXXXXXXXXXXXX",
"XXXXXXXXXXXXXXXXXXXXXXXXXXXXXXXXXXXXXXXXXXXXXXXXXXXXXXXXXXXXXXXX",
"XXXXXXXXXXXXXXXXXXXXXXXXXXXXXXXXXXXXXXXXXXXXXXXXXXXXXXXXXXXXXXXX",
"XXXXXXXXXXXXXXXXXXXXXXXXXXXXXXXXXXXXXXXXXXXXXXXXXXXXXXXXXXXXXXXX",
"XXXXXXXXXXXXXXXXXXXXXXXXXXXXXXXXXXXXXXXXXXXXXXXXXXXXXXXXXXXXXXXX",
"XXXXXXXXXXXXXXXXXXXXXXXXXXXXXXXXXXXXXXXXXXXXXXXXXXXXXXXXXXXXXXXX",
"XXXXXXXXXXXXXXXXXXXXXXXXXXXXXXXXXXXXXXXXXXXXXXXXXXXXXXXXXXXXXXXX",
"XXXXXXXXXXXXXXXXXXXXXXXXXXXXXXXXXXXXXXXXXXXXXXXXXXXXXXXXXXXXXXXX",
"XXXXXXXXXXXXXXXXXXXXXXXXXXXXXXXXXXXXXXXXXXXXXXXXXXXXXXXXXXXXXXXX"};
