#define noname_width 64
#define noname_height 42
static char noname_bits[] = {
 0x00,0x00,0x00,0x00,0x00,0x00,0x00,0x00,0x00,0x00,0x00,0x00,0x00,0x00,0x00,
 0x00,0x00,0x00,0x00,0x00,0x00,0x00,0x00,0x00,0x00,0x00,0x00,0x00,0x00,0x00,
 0x00,0x00,0x00,0x00,0x00,0xb0,0x03,0x00,0x00,0x00,0x00,0x00,0x00,0xe0,0x06,
 0x00,0x00,0x00,0x00,0x00,0x00,0x50,0x03,0x00,0x00,0x00,0x00,0x00,0x00,0xf0,
 0x06,0x00,0x00,0x00,0x00,0x00,0x00,0xa0,0x03,0x00,0x00,0x00,0x00,0x00,0x00,
 0xf0,0x06,0x00,0x00,0x00,0x00,0x00,0x70,0xab,0x7d,0x07,0x00,0x00,0x00,0x00,
 0xd0,0x7e,0xab,0x03,0x00,0x00,0x00,0x00,0xd0,0xd5,0xdd,0x06,0x00,0x00,0x00,
 0x00,0x60,0x7b,0xb7,0x05,0x00,0x00,0x00,0x00,0xb0,0xad,0xdd,0x06,0x00,0x00,
 0x00,0x00,0x60,0xef,0xb6,0x03,0x00,0x00,0x00,0x00,0x00,0xb0,0x03,0x00,0x00,
 0x00,0x00,0x00,0x00,0xd0,0x06,0x00,0x00,0x00,0x00,0x00,0x00,0x60,0x03,0x00,
 0x00,0x00,0x00,0x00,0x00,0xd0,0x06,0x00,0x00,0x00,0x00,0x00,0x00,0x70,0x03,
 0x00,0x00,0x00,0x00,0x00,0x00,0xd0,0x06,0x00,0x00,0x00,0x00,0x00,0x00,0xb0,
 0x03,0x00,0x00,0x00,0x00,0x00,0x00,0x00,0x00,0x00,0x00,0x00,0x00,0x00,0x00,
 0x00,0x00,0x00,0x00,0x00,0x80,0x1f,0x00,0x00,0x00,0x00,0x00,0x00,0x80,0x31,
 0x00,0x00,0x00,0x00,0x00,0x00,0x80,0x31,0x8f,0xc7,0x33,0xe6,0xd9,0x00,0x80,
 0xb1,0xd9,0x6c,0x36,0x36,0xfb,0x00,0x80,0x9f,0xd9,0x60,0x66,0x33,0x3b,0x00,
 0x80,0x99,0xdf,0x60,0x66,0xf3,0x1b,0x00,0x80,0xb1,0xc1,0x60,0xc6,0x31,0x18,
 0x00,0x80,0xb1,0xd9,0x6c,0xc6,0x31,0x1b,0x00,0x80,0x31,0x8f,0xc7,0x83,0xe0,
 0x19,0x00,0x00,0x00,0x00,0x00,0x00,0x00,0x00,0x00,0x00,0x00,0x00,0x00,0x00,
 0x00,0x00,0x00,0x00,0x00,0x00,0x00,0x00,0x00,0x00,0x00,0x00,0x00,0x00,0x00,
 0x00,0x00,0x00,0x00,0x00,0x00,0x00,0x00,0x00,0x00,0x00,0x00,0x00,0x00,0x00,
 0x00,0x00,0x00,0x00,0x00,0x00,0x00,0x00,0x00,0x00,0x00,0x00,0x00,0x00,0x00,
 0x00,0x00,0x00,0x00,0x00,0x00};
