/* XPM */
static char * reply_xpm[] = {
"64 42 6 1",
"X	c Gray75 s backgroundToolBarColor",
",	c black s foregroundToolBarColor",
"o	c black",
"O	c Gray90",
"+	c Gray60",
"@	c white",
"XXXXXXXXXXXXXXXXXXXXXXXXXXXXXXXXXXXXXXXXXXXXXXXXXXXXXXXXXXXXXXXX",
"XXXXXXXXXXXXXXXXXXXXXXXXXXXXXXXXXXXXXXXXXXXXXXXXXXXXXXXXXXXXXXXX",
"XXXXXXXXXXXXXXXXXXXXXXXXXoooooooooooXXXXXXXXXXXXXXXXXXXXXXXXXXXX",
"XXXXXXXXXXXXXXXXXXXXXXXXXoOOOOOOOOOooXXXXXXXXXXXXXXXXXXXXXXXXXXX",
"XXXXXXXXXXXXXXXXXXXXXXXXXoOOOOOOOOOo+oXXXXXXXXXXXXXXXXXXXXXXXXXX",
"XXXXXXXXXXXXXXXXXXXXXXXXXoOOOOOOOOOooooXXXXXXXXXXXXXXXXXXXXXXXXX",
"XXXXXXXXXXXXXXXXXXXXXXXXXoOOOOOOOOOOOOoXXXXXXXXXXXXXXXXXXXXXXXXX",
"XXXXXXXXXXXXXXXXXXXXooooooooooooooooooooooooXXXXXXXXXXXXXXXXXXXX",
"XXXXXXXXXXXXXXXXXXXXo@@@@@@@@@@@@@@@@@@@@@@oXXXXXXXXXXXXXXXXXXXX",
"XXXXXXXXXXXXXXXXXXXXo@oo@@@@@@@@@@@@@@@ooo@oXXXXXXXXXXXXXXXXXXXX",
"XXXXXXXXXXXXXXXXXXXXo@@@@@@@@@@@@@@@@@@o+o@oXXXXXXXXXXXXXXXXXXXX",
"XXXXXXXXXXXXXXXXXXXXo@@@@@@@@@@@@@@@@@@o+o@oXXXXXXXXXXXXXXXXXXXX",
"XXXXXXXXXXXXXXXXXXXXo@@@@@ooooooooo@@@@ooo@oXXXXXXXXXXXXXXXXXXXX",
"XXXXXXXXXXXXXXXXXXXXo@@@@@@@@@@@@@@@@@@@@@@oXXXXXXXXXXXXXXXXXXXX",
"XXXXXXXXXXXXXXXXXXXXo@@@@@ooooooo@@@@@@@@@@oXXXXXXXXXXXXXXXXXXXX",
"XXXXXXXXXXXXXXXXXXXXo@@@@@@@@@@@@@@@@@@@@@@oXXXXXXXXXXXXXXXXXXXX",
"XXXXXXXXXXXXXXXXXXXXo@@@@@ooooo@@@@@@@@@@@@oXXXXXXXXXXXXXXXXXXXX",
"XXXXXXXXXXXXXXXXXXXXo@@@@@@@@@@@@@@@@@@@@@@oXXXXXXXXXXXXXXXXXXXX",
"XXXXXXXXXXXXXXXXXXXXo@@@@@@@@@@@@@@@@@@@@@@oXXXXXXXXXXXXXXXXXXXX",
"XXXXXXXXXXXXXXXXXXXXo@@@@@@@@@@@@@@@@@@@@@@oXXXXXXXXXXXXXXXXXXXX",
"XXXXXXXXXXXXXXXXXXXXooooooooooooooooooooooooXXXXXXXXXXXXXXXXXXXX",
"XXXXXXXXXXXXXXXXXXXXXXXXXoOOOOOOOOOOOOoXXXXXXXXXXXXXXXXXXXXXXXXX",
"XXXXXXXXXXXXXXXXXXXXXXXXXooooooooooooooXXXXXXXXXXXXXXXXXXXXXXXXX",
"XXXXXXXXXXXXXXXXXXXXXXXXXXXXXXXXXXXXXXXXXXXXXXXXXXXXXXXXXXXXXXXX",
"XXXXXXXXXXXXXXXXXXXXXXXXXXXXXXXXXXXXXXXXXXXXXXXXXXXXXXXXXXXXXXXX",
"XXXXXXXXXXXXXXXX,,,,,,XXXXXXXXXXXXXXXX,,XXXXXXXXXXXXXXXXXXXXXXXX",
"XXXXXXXXXXXXXXXX,,XXX,,XXXXXXXXXXXXXXX,,XXXXXXXXXXXXXXXXXXXXXXXX",
"XXXXXXXXXXXXXXXX,,XXX,,XX,,,,XX,,X,,XX,,X,,XXX,,XXXXXXXXXXXXXXXX",
"XXXXXXXXXXXXXXXX,,XXX,,X,,XX,,X,,,X,,X,,X,,XXX,,XXXXXXXXXXXXXXXX",
"XXXXXXXXXXXXXXXX,,,,,,XX,,XX,,X,,XX,,X,,XX,,X,,XXXXXXXXXXXXXXXXX",
"XXXXXXXXXXXXXXXX,,XX,,XX,,,,,,X,,XX,,X,,XX,,X,,XXXXXXXXXXXXXXXXX",
"XXXXXXXXXXXXXXXX,,XXX,,X,,XXXXX,,XX,,X,,XXX,,,XXXXXXXXXXXXXXXXXX",
"XXXXXXXXXXXXXXXX,,XXX,,X,,XX,,X,,,X,,X,,XXX,,,XXXXXXXXXXXXXXXXXX",
"XXXXXXXXXXXXXXXX,,XXX,,XX,,,,XX,,X,,XX,,XXXX,,XXXXXXXXXXXXXXXXXX",
"XXXXXXXXXXXXXXXXXXXXXXXXXXXXXXX,,XXXXXXXXXXX,XXXXXXXXXXXXXXXXXXX",
"XXXXXXXXXXXXXXXXXXXXXXXXXXXXXXX,,XXXXXXXXXX,,XXXXXXXXXXXXXXXXXXX",
"XXXXXXXXXXXXXXXXXXXXXXXXXXXXXXX,,XXXXXXXXX,,XXXXXXXXXXXXXXXXXXXX",
"XXXXXXXXXXXXXXXXXXXXXXXXXXXXXXXXXXXXXXXXXXXXXXXXXXXXXXXXXXXXXXXX",
"XXXXXXXXXXXXXXXXXXXXXXXXXXXXXXXXXXXXXXXXXXXXXXXXXXXXXXXXXXXXXXXX",
"XXXXXXXXXXXXXXXXXXXXXXXXXXXXXXXXXXXXXXXXXXXXXXXXXXXXXXXXXXXXXXXX",
"XXXXXXXXXXXXXXXXXXXXXXXXXXXXXXXXXXXXXXXXXXXXXXXXXXXXXXXXXXXXXXXX",
"XXXXXXXXXXXXXXXXXXXXXXXXXXXXXXXXXXXXXXXXXXXXXXXXXXXXXXXXXXXXXXXX"};
