/* XPM */
static char *stuffed_box[] = {
/* width height num_colors chars_per_pixel */
"    24    30      254            2",
/* colors */
".. c #000000",
".# c #b1b1b1",
".a c #242120",
".b c #505955",
".c c #491909",
".d c #3e1608",
".e c #a9a9a9 s background",
".f c #eeeef0",
".g c #a7a7a7",
".h c #a3411c",
".i c #663622",
".j c #5c210b",
".k c #a83e17",
".l c #2f2824",
".m c #9f7b71",
".n c #d38141",
".o c #a3a3a3",
".p c #d27f40",
".q c #a1a1a1",
".r c #511c0a",
".s c #ccc1be",
".t c #9d9d9d",
".u c #cd773b",
".v c #903a13",
".w c #592a15",
".x c #1e1d1d",
".y c #cdcccc",
".z c #959595",
".A c #939393",
".B c #e8ac69",
".C c #919191",
".D c #8f8f8f",
".E c #8d8d8d",
".F c #240e05",
".G c #652810",
".H c #a55f3b",
".I c #878787",
".J c #f2f1f0",
".K c #a0491f",
".L c #8a4a27",
".M c #0c0401",
".N c #efbf80",
".O c #7d7d7d",
".P c #3d3531",
".Q c #2a0b04",
".R c #7b7b7b",
".S c #81401e",
".T c #797979",
".U c #adacac",
".V c #904d26",
".W c #eab071",
".X c #11132a",
".Y c #737373",
".Z c #999695",
".0 c #ab4119",
".1 c #d16d31",
".2 c #b3b8b5",
".3 c #030305",
".4 c #212129",
".5 c #b74c1e",
".6 c #ca7b41",
".7 c #696969",
".8 c #404644",
".9 c #2d1e17",
"#. c #656565",
"## c #8b3417",
"#a c #dfae7d",
"#b c #f5eeef",
"#c c #5e260f",
"#d c #d58445",
"#e c #5f5f5f",
"#f c #763416",
"#g c #5a200b",
"#h c #301006",
"#i c #7a2f10",
"#j c #edb87a",
"#k c #4e1b09",
"#l c #da8e4d",
"#m c #8b8a8a",
"#n c #d97435",
"#o c #d58648",
"#p c #32160b",
"#q c #fefefe",
"#r c #e8ad6b",
"#s c #020000",
"#t c #474747",
"#u c #bfbfc0",
"#v c #4f505c",
"#w c #6b280e",
"#x c #fcdf9c",
"#y c #e39e5c",
"#z c #160803",
"#A c #3f3f3f",
"#B c #61230e",
"#C c #140601",
"#D c #3c0e04",
"#E c #7e3010",
"#F c #eaeaea",
"#G c #a4a3a2",
"#H c #bb5121",
"#I c #cd642c",
"#J c #b94f1f",
"#K c #cb622a",
"#L c #333333",
"#M c #d88747",
"#N c #110601",
"#O c #d58344",
"#P c #070301",
"#Q c #511e0b",
"#R c #bf9f84",
"#S c #d2d2d2",
"#T c #6f290e",
"#U c #eed6b2",
"#V c #c55c27",
"#W c #441708",
"#X c #bab8b7",
"#Y c #e9ae6b",
"#Z c #823110",
"#0 c #171717",
"#1 c #eccba6",
"#2 c #51200e",
"#3 c #a33c16",
"#4 c #983915",
"#5 c #7f6352",
"#6 c #eab26f",
"#7 c #361207",
"#8 c #bd5222",
"#9 c #d0672e",
"a. c #a35326",
"a# c #da8f52",
"aa c #aaaaaa",
"ab c #a8a8a8",
"ac c #a6a6a6",
"ad c #a4a4a4",
"ae c #d38041",
"af c #303246",
"ag c #a2a2a2",
"ah c #b85020",
"ai c #d17e3f",
"aj c #521d0b",
"ak c #a0a0a0",
"al c #e6a764",
"am c #d07c3e",
"an c #cf7a3d",
"ao c #9e9e9e",
"ap c #9c9c9c",
"aq c #c75d28",
"ar c #1b0a03",
"as c #d88a49",
"at c #433f3e",
"au c #989898",
"av c #65250d",
"aw c #969696",
"ax c #0a0806",
"ay c #949494",
"az c #581e0a",
"aA c #c6c5c5",
"aB c #909090",
"aC c #d67d3d",
"aD c #9ea0a1",
"aE c #121211",
"aF c #db7838",
"aG c #414249",
"aH c #8a8a8a",
"aI c #d88c4c",
"aJ c #b0461b",
"aK c #28322d",
"aL c #4f5150",
"aM c #833613",
"aN c #848484",
"aO c #361306",
"aP c #808080",
"aQ c #551e0a",
"aR c #762d10",
"aS c #837b79",
"aT c #17110f",
"aU c #cfcfd4",
"aV c #943413",
"aW c #767676",
"aX c #98534f",
"aY c #ad461b",
"aZ c #727272",
"a0 c #1c1917",
"a1 c #c06a34",
"a2 c #6c6c6c",
"a3 c #722b0f",
"a4 c #c96029",
"a5 c #9a9999",
"a6 c #60616a",
"a7 c #67240e",
"a8 c #764a37",
"a9 c #3b1407",
"b. c #504e4d",
"b# c #100601",
"ba c #e7aa67",
"bb c #f4e0b9",
"bc c #d4d6d5",
"bd c #423028",
"be c #545454",
"bf c #d66f32",
"bg c #c05623",
"bh c #d36b2f",
"bi c #d2692e",
"bj c #4a4a4a",
"bk c #762e0f",
"bl c #461d0e",
"bm c #56150a",
"bn c #6c290f",
"bo c #ecb472",
"bp c #c58859",
"bq c #404040",
"br c #5f220c",
"bs c #3a3a3a",
"bt c #cd652c",
"bu c #363636",
"bv c #e7e7e7",
"bw c #732c0f",
"bx c #fee4a1",
"by c #68270e",
"bz c #dfdfdf",
"bA c #7a3819",
"bB c #2c2c2c",
"bC c #dbdbdb",
"bD c #f0ece9",
"bE c #d48243",
"bF c #282828",
"bG c #4e4b4a",
"bH c #5c5b5b",
"bI c #988f8c",
"bJ c #de7c39",
"bK c #b54c1e",
"bL c #b44a1d",
"bM c #b3481c",
"bN c #342f2d",
"bO c #220701",
"bP c #c45b26",
"bQ c #190802",
"bR c #c35925",
"bS c #d56c30",
"bT c #3f3d3b",
"bU c #e0803e",
"bV c #fbfafa",
"bW c #dd9252",
"bX c #afb0b6",
"bY c #772b0f",
"bZ c #f7f6f6",
"b0 c #220b04",
"b1 c #0e0e0e",
"b2 c #cb763d",
"b3 c #dd9b5f",
"b4 c #ad4219",
"b5 c #fadb99",
"b6 c #67756f",
"b7 c #e9e8e8",
/* pixels */
".e.e.e.e.e.e.e.e.e.e.e.e.o.e.e.e.e.e.e.e.e.e.e.e",
".e.e.e.e.e.e.e.e.e.e.e.o.2.Z.m.o.e.e.e.e.o.o.e.e",
".e.e.e.e.e.e.e.e.e.e.obcbZ.6bp.H.m.o.e.e.e.s.o.o",
".e.e.e.e.e.e.e.e.e.e.fbZbZbbbc.Nbp.H.map.2.mbZbz",
".e.e.e.e.e.e.e.e.e.e#RbIbc#b.qbp.W.Bbpa.a8.YaA.7",
".e.e.e.e.e.e.e.ebIa8.y.sbD#S.Ibe.L.B#rbob3.Lbl.o",
".e.e.e.e.e.e.o#5a1#abe.y.o.qb.#e.q#U.Nbobob5.w.e",
".e.e.e.e.ebI.H.n#RbI.q#eaPbdb..o.I#X.N.W.N#lbl.e",
".e.e.e.oaXa1.nai.Vblb.#..9.x.Rbc#S.i#a.N#daF.d.e",
".e.e.e.ia1bU.uai.n.6bdbs.3#z.dbI#jal.N#n#n.SaLaA",
".e.e.e#W#c.Hai.u.6a#.m.3a8aI.H.Hal.N#n.1.Sat#XbI",
".e.e.e#W.v.j.V.uai.n#l.6bpas#lal#1#n#I.S.vbnaTaN",
".e.e.e.Q.v.v#w.Ga1.u#d#das#lbW.N#I#I.S#Z.1#Ibl.e",
".e.e.e.9bO#T.v#Z.j.H.u.n.na#.N.u#V.v.F#Ra#.1.9.U",
".e.e.e.P#haE.G.v.v.jbA.ua#.N.ubg.haTb.#b#obfbl.e",
".e.e.A.o#SbHbF#p#T.v#E.Gbpa4#HbnaTaLbIbp#Va.bT.U",
".e.e.e.IbcaubH#7#7.j.v#i.v.5#E##bY.v.h#V#Hbdak.e",
".e.e.eb.a8#S.9.G#ibl.d#T##.vaY#H.5.5bgbgblaN.q.e",
".e.e.eb..Ga8.i#ZbYbY.j.Q.jaY.5.5#H#H.m.w.7.o.e.e",
".e.e.ebGbYbn#w#i#T#T#T.j#ZaJ.5.5.5.S.y#u.A.o.e.e",
".e.e.oaL.d#Tbn#T#T#T#w.G#ZaY.5.h.i.Dbz.fbV.y#u.o",
".e.eapbHaxbObTa2#T#w.G.j#iaYaYb..2aua6.Obzbz#q.2",
".e.e.o.RaL.a.q.Ube#w.j.jaR.k#4#h#A.o.Dbzau#qbcap",
".e.eapaN#Aa2.ybv#Xa8#g#g#T.k#Z.PbG#L.o.2.2bZ.A.o",
".o.I.Aak.fbZbXaZbz#.#gbl#T##bd.IaNbH#L.Obz.2.z.e",
".Aa2.Rbz.eaAaDaNaU.lax.d.j.9aP.q.e.AbHbsa2aN.o.e",
"ap.Y#AaA#S.o.DbZ.obebBb1aTaS.o.e.e.o.Ia2.Yap.e.e",
".o.AbHbeaAaU.faA.I.I.7be.Rak.e.e.e.e.eap.o.e.e.e",
".e.o.Ibe#A#u.e.R.o.oap.A.o.e.e.e.e.e.e.e.e.e.e.e",
".e.e.oaNbHbe.R.o.e.e.e.e.e.e.e.e.e.e.e.e.e.e.e.e"
};
