/* XPM */
static char *noname[] = {
/* width height ncolors chars_per_pixel */
"24 30 9 1",
/* colors */
"` c #A9A9A9 s background",
"- c #A9A9A9",
"a c #A83E17",
"b c #030305",
"c c #DA8E4D",
"d c #FEFEFE",
"e c #60616A",
"f c #423028",
"g c #FADB99",
/* pixels */
"````````````````````````",
"``````````````e`````````",
"```````````ddccae```````",
"``````````dddgdgcae``edd",
"`````````---dd-ccccafe`e",
"`````````f--dg-eaccccaf`",
"```````ecce---ee-ggccgf`",
"``````ac---eefe---gcgcf`",
"````acccafeeffedgfcgccf`",
"```fccccccffbbf-gcgccae`",
"```ffaccccebfcaacgccaf-`",
"```fafacccccccccgccaafbe",
"```baaffcccccccgccaaccf`",
"```fbfaafaccccgcaab-ccf`",
"```fbbfaafaccgcaabedccf`",
"```-gefffaafcaafbe-caaf`",
"```-d-efffaaaaaaaaaaaf``",
"```efgffafffaaaaaaaafe``",
"```efffaaafbfaaaaaefe```",
"```eaffaffffaaaaaa--````",
"```effffffffaaaaf-ddd```",
"```ebbfeffffaaae--eeddd`",
"```eef--efffaaabf--d-dd`",
"```efe-d-ffffaafef---d``",
"```-dd-edefffaf`eefed```",
"`eed---e-fbfffe```efee``",
"`ef-g--d-efbbe`````ee```",
"``ee--d---eee```````````",
"```ef--e````````````````",
"```eeee`````````````````"
};
