#define noname_width 64
#define noname_height 42
static char noname_bits[] = {
 0x00,0x00,0x00,0x00,0x00,0x00,0x00,0x00,0x00,0x00,0x00,0x00,0x00,0x00,0x00,
 0x00,0x00,0x00,0x00,0x00,0x00,0x00,0x00,0x00,0x00,0x00,0x00,0x00,0x00,0x00,
 0x00,0x00,0x00,0x00,0x00,0x00,0x00,0x00,0x00,0x00,0x00,0x00,0x00,0xfe,0x07,
 0x0a,0x00,0x00,0x00,0x00,0x00,0x02,0x44,0x05,0x00,0x00,0x00,0x00,0xa0,0x0a,
 0xa4,0x02,0x00,0x00,0x00,0x00,0x50,0x55,0x74,0x00,0x00,0x00,0x00,0x00,0x00,
 0xaa,0x68,0x00,0x00,0x00,0x00,0x00,0x00,0x42,0x45,0x00,0x00,0x00,0x00,0x00,
 0x00,0x82,0x42,0x00,0x00,0x00,0x00,0x00,0x00,0x42,0x55,0x00,0x00,0x00,0x00,
 0x00,0x00,0xa2,0x68,0x00,0x00,0x00,0x00,0x00,0x00,0x52,0x50,0x01,0x00,0x00,
 0x00,0x00,0x00,0x2a,0xc0,0x02,0x00,0x00,0x00,0x00,0x00,0x16,0x40,0x05,0x00,
 0x00,0x00,0x00,0x00,0x0a,0x40,0x0a,0x00,0x00,0x00,0x00,0x40,0x03,0x40,0x14,
 0x00,0x00,0x00,0x00,0xa0,0x02,0x40,0x28,0x00,0x00,0x00,0x00,0x00,0x02,0x40,
 0x00,0x00,0x00,0x00,0x00,0x00,0x02,0x40,0x00,0x00,0x00,0x00,0x00,0x00,0xfe,
 0x7f,0x00,0x00,0x00,0x00,0x00,0x00,0x00,0x00,0x00,0x00,0x00,0x00,0x00,0x00,
 0x00,0x00,0x00,0x00,0x00,0x60,0x0c,0x00,0x03,0x0c,0x60,0x00,0x00,0x60,0x0c,
 0x00,0x03,0x0c,0x60,0x00,0x00,0x60,0x6c,0x63,0xf3,0xcc,0xf3,0x3c,0x00,0x60,
 0xec,0xb6,0x9b,0x6d,0x66,0x66,0x00,0x60,0x6c,0x36,0x9b,0x6d,0x66,0x66,0x00,
 0x60,0x6c,0x36,0xfb,0xed,0x67,0x7e,0x00,0x60,0x6c,0x36,0x1b,0x6c,0x60,0x06,
 0x00,0xc0,0x66,0xb6,0x9b,0x6d,0x66,0x67,0x00,0xc0,0x67,0x66,0xf3,0xcc,0xc3,
 0x3c,0x00,0x00,0x00,0x00,0x00,0x00,0x00,0x00,0x00,0x00,0x00,0x00,0x00,0x00,
 0x00,0x00,0x00,0x00,0x00,0x00,0x00,0x00,0x00,0x00,0x00,0x00,0x00,0x00,0x00,
 0x00,0x00,0x00,0x00,0x00,0x00,0x00,0x00,0x00,0x00,0x00,0x00,0x00,0x00,0x00,
 0x00,0x00,0x00,0x00,0x00,0x00,0x00,0x00,0x00,0x00,0x00,0x00,0x00,0x00,0x00,
 0x00,0x00,0x00,0x00,0x00,0x00};
