/* XPM */
static char * undelete_xpm[] = {
"64 42 4 1",
"X	c Gray75 s backgroundToolBarColor",
"o	c Gray60",
"O	c white",
"+	c Gray60",
"XXXXXXXXXXXXXXXXXXXXXXXXXXXXXXXXXXXXXXXXXXXXXXXXXXXXXXXXXXXXXXXX",
"XXXXXXXXXXXXXXXXXXXXXXXXXXXXXXXXXXXXXXXXXXXXXXXXXXXXXXXXXXXXXXXX",
"XXXXXXXXXXXXXXXXXXXXXXXXXXXXXXXXXXXXXXXXXXXXXXXXXXXXXXXXXXXXXXXX",
"XXXXXXXXXXXXXXXXXXXXXXXXXXXXXXXXXXXXXXXXXXXXXXXXXXXXXXXXXXXXXXXX",
"XXXXXXXXXXXXXXXXXXXXXXXXXXXXXXXXXXXXXXXXXXXXXXXXXXXXXXXXXXXXXXXX",
"XXXXXXXXXXXXXXXXXXXXXXXXXooooooooooXXXXXXoXoXXXXXXXXXXXXXXXXXXXX",
"XXXXXXXXXXXXXXXXXXXXXXXXXoOOOOOOOOoOXXoXoXoXXXXXXXXXXXXXXXXXXXXX",
"XXXXXXXXXXXXXXXXXXXXXoXoXoOoOOOOOOo+OoXoXoXXXXXXXXXXXXXXXXXXXXXX",
"XXXXXXXXXXXXXXXXXXXXoXoXoXoOoOoOOOo+oooXXXXXXXXXXXXXXXXXXXXXXXXX",
"XXXXXXXXXXXXXXXXXXXXXXXXXoOoOoOoOOOoOooXXXXXXXXXXXXXXXXXXXXXXXXX",
"XXXXXXXXXXXXXXXXXXXXXXXXXoOOOOoOoOoOOOoXXXXXXXXXXXXXXXXXXXXXXXXX",
"XXXXXXXXXXXXXXXXXXXXXXXXXoOOOOOoOoOOOOoXXXXXXXXXXXXXXXXXXXXXXXXX",
"XXXXXXXXXXXXXXXXXXXXXXXXXoOOOOoOoOoOoOoXXXXXXXXXXXXXXXXXXXXXXXXX",
"XXXXXXXXXXXXXXXXXXXXXXXXXoOOOoOoOOOoOooXXXXXXXXXXXXXXXXXXXXXXXXX",
"XXXXXXXXXXXXXXXXXXXXXXXXXoOOoOoOOOOOoOoXoXXXXXXXXXXXXXXXXXXXXXXX",
"XXXXXXXXXXXXXXXXXXXXXXXXXoOoOoOOOOOOOOooXoXXXXXXXXXXXXXXXXXXXXXX",
"XXXXXXXXXXXXXXXXXXXXXXXXXooOoOOOOOOOOOoXoXoXXXXXXXXXXXXXXXXXXXXX",
"XXXXXXXXXXXXXXXXXXXXXXXXXoOoOOOOOOOOOOoXXoXoXXXXXXXXXXXXXXXXXXXX",
"XXXXXXXXXXXXXXXXXXXXXXoXooOOOOOOOOOOOOoXXXoXoXXXXXXXXXXXXXXXXXXX",
"XXXXXXXXXXXXXXXXXXXXXoXoXoOOOOOOOOOOOOoXXXXoXoXXXXXXXXXXXXXXXXXX",
"XXXXXXXXXXXXXXXXXXXXXXXXXoOOOOOOOOOOOOoXXXXXXXXXXXXXXXXXXXXXXXXX",
"XXXXXXXXXXXXXXXXXXXXXXXXXoOOOOOOOOOOOOoXXXXXXXXXXXXXXXXXXXXXXXXX",
"XXXXXXXXXXXXXXXXXXXXXXXXXooooooooooooooXXXXXXXXXXXXXXXXXXXXXXXXX",
"XXXXXXXXXXXXXXXXXXXXXXXXXXXXXXXXXXXXXXXXXXXXXXXXXXXXXXXXXXXXXXXX",
"XXXXXXXXXXXXXXXXXXXXXXXXXXXXXXXXXXXXXXXXXXXXXXXXXXXXXXXXXXXXXXXX",
"XXXXXooXXXooXXXXXXXXXXXXooXXXXXXXXooXXXXXXXXXooXXXXXXXXXXXXXXXXX",
"XXXXXooXXXooXXXXXXXXXXXXooXXXXXXXXooXXXXXXXXXooXXXXXXXXXXXXXXXXX",
"XXXXXooXXXooXooXooXXXooXooXXooooXXooXXooooXXooooXXooooXXXXXXXXXX",
"XXXXXooXXXooXoooXooXooXoooXooXXooXooXooXXooXXooXXooXXooXXXXXXXXX",
"XXXXXooXXXooXooXXooXooXXooXooXXooXooXooXXooXXooXXooXXooXXXXXXXXX",
"XXXXXooXXXooXooXXooXooXXooXooooooXooXooooooXXooXXooooooXXXXXXXXX",
"XXXXXooXXXooXooXXooXooXXooXooXXXXXooXooXXXXXXooXXooXXXXXXXXXXXXX",
"XXXXXXooXooXXooXXooXooXoooXooXXooXooXooXXooXXooXoooXXooXXXXXXXXX",
"XXXXXXoooooXXooXXooXXooXooXXooooXXooXXooooXXXXooXXooooXXXXXXXXXX",
"XXXXXXXXXXXXXXXXXXXXXXXXXXXXXXXXXXXXXXXXXXXXXXXXXXXXXXXXXXXXXXXX",
"XXXXXXXXXXXXXXXXXXXXXXXXXXXXXXXXXXXXXXXXXXXXXXXXXXXXXXXXXXXXXXXX",
"XXXXXXXXXXXXXXXXXXXXXXXXXXXXXXXXXXXXXXXXXXXXXXXXXXXXXXXXXXXXXXXX",
"XXXXXXXXXXXXXXXXXXXXXXXXXXXXXXXXXXXXXXXXXXXXXXXXXXXXXXXXXXXXXXXX",
"XXXXXXXXXXXXXXXXXXXXXXXXXXXXXXXXXXXXXXXXXXXXXXXXXXXXXXXXXXXXXXXX",
"XXXXXXXXXXXXXXXXXXXXXXXXXXXXXXXXXXXXXXXXXXXXXXXXXXXXXXXXXXXXXXXX",
"XXXXXXXXXXXXXXXXXXXXXXXXXXXXXXXXXXXXXXXXXXXXXXXXXXXXXXXXXXXXXXXX",
"XXXXXXXXXXXXXXXXXXXXXXXXXXXXXXXXXXXXXXXXXXXXXXXXXXXXXXXXXXXXXXXX"};
