#define noname_width 64
#define noname_height 42
static char noname_bits[] = {
 0x00,0x00,0x00,0x00,0x00,0x00,0x00,0x00,0x00,0x00,0x00,0x00,0x00,0x00,0x00,
 0x00,0x00,0x00,0x00,0x00,0x00,0x00,0x00,0x00,0x00,0x00,0x00,0x00,0x00,0x00,
 0x00,0x00,0x00,0x00,0x00,0x00,0x00,0x00,0x00,0x00,0x00,0x00,0x00,0x00,0x00,
 0x00,0x00,0x00,0x00,0x00,0x00,0x00,0x00,0x00,0x00,0x00,0x00,0x00,0x00,0x04,
 0x0c,0x06,0x00,0x00,0x00,0x00,0x80,0x8b,0xcb,0x05,0x00,0x00,0x00,0x00,0x60,
 0x78,0x3c,0x04,0x00,0x00,0x00,0x00,0x20,0x80,0x03,0x02,0x00,0x00,0x00,0x00,
 0x40,0x60,0x00,0x02,0x00,0x00,0x00,0x00,0x40,0x20,0x1c,0x01,0x00,0x00,0x00,
 0x00,0x40,0xa0,0x03,0x01,0x00,0x00,0x00,0x00,0x80,0x10,0x00,0x01,0x00,0x00,
 0x00,0x00,0x80,0x10,0x83,0x00,0x00,0x00,0x00,0x00,0x00,0xc9,0xe0,0x00,0x00,
 0x00,0x00,0x00,0x00,0x09,0x1c,0x00,0x00,0x00,0x00,0x00,0x00,0x89,0x03,0x00,
 0x00,0x00,0x00,0x00,0x00,0x76,0x00,0x00,0x00,0x00,0x00,0x00,0x00,0x0e,0x00,
 0x00,0x00,0x00,0x00,0x00,0x00,0x00,0x00,0x00,0x00,0x00,0x00,0x00,0x00,0x00,
 0x00,0x00,0x00,0x00,0x00,0x00,0x00,0x00,0x00,0x00,0x00,0x00,0x00,0x00,0x00,
 0x00,0x00,0x00,0x00,0x00,0x00,0x00,0x18,0x1e,0x60,0x06,0x00,0x00,0x00,0x00,
 0x18,0x06,0x00,0x06,0x00,0x00,0x00,0x00,0x30,0x9b,0x67,0x0f,0x00,0x00,0x00,
 0x00,0x30,0xdb,0x6c,0x06,0x00,0x00,0x00,0x00,0x30,0xdb,0x61,0x06,0x00,0x00,
 0x00,0x00,0x20,0x19,0x67,0x06,0x00,0x00,0x00,0x00,0xe0,0x19,0x6e,0x06,0x00,
 0x00,0x00,0x00,0xc0,0xd8,0x6c,0x16,0x00,0x00,0x00,0x00,0xc0,0x98,0x67,0x0c,
 0x00,0x00,0x00,0x00,0x00,0x00,0x00,0x00,0x00,0x00,0x00,0x00,0x00,0x00,0x00,
 0x00,0x00,0x00,0x00,0x00,0x00,0x00,0x00,0x00,0x00,0x00,0x00,0x00,0x00,0x00,
 0x00,0x00,0x00,0x00,0x00,0x00,0x00,0x00,0x00,0x00,0x00,0x00,0x00,0x00,0x00,
 0x00,0x00,0x00,0x00,0x00,0x00,0x00,0x00,0x00,0x00,0x00,0x00,0x00,0x00,0x00,
 0x00,0x00,0x00,0x00,0x00,0x00};
